<svg xmlns="http://www.w3.org/2000/svg" width="1387" height="756" viewBox="0 0 1387 756">
<g>
<path d="M 318.83 554.01 C308.01,556.31 289.26,557.28 280.25,556.00 C270.72,554.66 259.52,551.32 251.62,547.46 C224.04,534.00 212.73,508.76 218.48,473.50 C225.59,429.87 265.43,374.91 327.01,323.77 C336.03,316.28 329.14,320.28 315.84,330.25 C294.29,346.42 281.81,357.14 262.92,375.72 C253.25,385.22 245.08,393.00 244.77,393.00 C243.51,393.00 241.00,383.36 241.00,378.54 C241.00,373.60 241.19,373.26 247.25,367.38 C293.58,322.44 351.31,284.33 427.90,248.13 C440.94,241.97 444.19,239.97 449.08,235.08 C453.99,230.17 455.17,228.24 457.03,222.12 C459.01,215.59 459.58,214.74 463.18,212.91 C469.31,209.78 475.45,209.49 483.00,211.98 C493.77,215.53 504.29,215.69 520.54,212.57 C542.36,208.37 556.40,204.97 557.23,203.68 C557.64,203.03 557.89,200.98 557.78,199.13 C557.50,194.49 560.69,192.00 566.92,192.00 C574.52,192.00 576.00,194.10 576.00,204.89 C576.00,212.86 575.77,213.96 573.55,216.35 C570.51,219.63 565.41,219.90 561.70,216.98 L 559.13 214.96 L 540.81 221.83 C523.16,228.46 514.60,232.26 510.62,235.26 C508.83,236.60 508.91,236.78 512.27,238.86 C518.15,242.49 527.55,253.38 531.32,260.92 C534.94,268.16 538.69,282.07 537.53,283.95 C536.77,285.18 533.05,285.32 531.27,284.18 C530.59,283.75 529.18,280.93 528.14,277.90 C523.67,264.92 518.21,257.31 508.89,251.08 C501.02,245.83 498.55,245.76 496.94,250.75 C493.08,262.70 489.36,265.44 475.92,266.24 C465.77,266.85 460.77,265.49 456.76,261.04 C455.26,259.37 453.44,258.00 452.71,258.00 C448.76,258.00 414.89,277.34 392.65,292.30 C342.71,325.87 295.30,371.64 267.60,413.00 C258.02,427.31 246.88,449.63 243.39,461.50 C240.24,472.25 239.07,490.22 240.95,499.25 C244.66,517.12 258.79,530.21 280.86,536.22 C292.21,539.31 312.85,539.29 326.88,536.16 C357.77,529.29 380.35,516.73 403.54,493.54 C418.62,478.46 426.44,467.58 435.06,449.70 C441.65,436.02 442.69,436.24 437.63,450.22 C429.42,472.90 417.16,491.92 399.05,510.08 C375.79,533.40 350.38,547.31 318.83,554.01 ZM 736.50 480.64 C731.72,482.83 728.77,483.45 722.00,483.66 C712.69,483.96 707.41,482.79 699.26,478.65 L 694.02 475.98 L 698.76 466.44 C702.17,459.58 703.92,457.03 705.00,457.38 C705.83,457.64 709.06,458.85 712.20,460.05 C716.28,461.62 718.91,462.05 721.47,461.57 C725.95,460.73 731.55,455.91 732.94,451.68 C733.93,448.68 732.63,445.26 714.05,401.98 C703.08,376.41 693.74,355.50 693.30,355.50 C692.86,355.50 684.30,363.86 674.27,374.07 L 656.04 392.65 L 676.39 420.07 C687.58,435.16 696.55,447.84 696.31,448.25 C696.08,448.66 688.96,449.00 680.51,449.00 L 665.13 449.00 L 661.74 444.75 C659.87,442.41 653.49,433.86 647.55,425.75 C641.62,417.64 636.46,411.00 636.10,411.00 C635.74,411.00 632.64,413.82 629.22,417.28 L 623.00 423.55 L 623.00 449.06 L 596.50 448.50 L 596.24 383.25 L 595.99 318.00 L 623.00 318.00 L 623.00 354.00 C623.00,373.80 623.34,390.00 623.76,390.00 C624.18,390.00 632.62,381.89 642.51,371.99 L 660.50 353.97 L 691.32 354.24 L 722.14 354.50 L 734.78 385.24 C741.73,402.15 747.73,415.65 748.13,415.24 C748.52,414.83 754.23,401.00 760.82,384.50 L 772.79 354.50 L 786.37 354.22 L 799.95 353.94 L 797.90 358.72 C796.76,361.35 787.29,384.17 776.84,409.43 C766.40,434.68 756.44,458.25 754.71,461.79 C750.49,470.44 743.93,477.23 736.50,480.64 ZM 544.79 449.41 C536.69,451.08 520.95,451.34 512.66,449.95 C504.92,448.65 494.11,445.08 487.04,441.49 C481.71,438.78 479.06,437.66 478.40,435.82 C477.80,434.12 478.90,431.81 481.16,427.07 C481.46,426.45 481.78,425.78 482.11,425.06 C484.82,419.32 487.23,414.43 487.46,414.20 C487.70,413.97 489.15,414.67 490.69,415.76 C500.78,422.88 515.00,427.33 528.00,427.43 C543.60,427.55 551.00,423.39 551.00,414.50 C551.00,406.18 546.37,403.37 523.19,397.58 C499.78,391.74 487.56,384.68 482.84,374.27 C480.80,369.76 480.11,358.36 481.50,351.95 C483.34,343.45 490.06,334.75 499.00,329.32 C510.13,322.56 532.54,320.15 550.24,323.82 C560.44,325.93 574.00,331.45 574.00,333.48 C574.00,334.61 566.38,353.95 565.65,354.68 C565.46,354.87 563.32,353.93 560.90,352.60 C544.36,343.45 517.88,342.98 511.01,351.71 C508.60,354.77 508.32,361.58 510.47,364.65 C512.78,367.95 519.36,370.52 537.07,375.02 C556.28,379.91 564.70,383.58 570.60,389.66 C578.80,398.10 581.49,413.26 576.95,425.41 C572.62,436.98 560.21,446.24 544.79,449.41 ZM 146.28 462.02 C144.14,467.71 141.90,472.53 141.31,472.73 C138.52,473.66 130.23,457.87 124.53,440.75 C104.90,381.85 120.24,318.12 164.54,274.50 C195.50,244.01 234.42,228.03 277.72,228.01 C291.59,228.00 312.79,230.40 314.50,232.17 C315.19,232.88 314.25,233.03 311.50,232.64 C296.35,230.48 273.28,231.28 257.96,234.51 C211.34,244.32 172.48,274.24 151.50,316.50 C141.15,337.34 136.46,355.01 135.35,377.26 C134.27,398.83 137.62,419.17 145.69,440.09 L 150.16 451.68 ZM 442.00 234.44 C437.27,237.42 435.64,237.94 433.94,236.99 C431.30,235.52 420.39,232.10 403.56,227.47 L 386.91 222.90 L 383.88 225.45 C380.63,228.19 377.50,228.64 373.74,226.93 C370.02,225.23 368.79,222.23 368.25,213.49 C367.75,205.53 367.80,205.30 370.50,203.17 C372.53,201.58 374.65,201.00 378.43,201.00 C384.43,201.00 386.00,202.17 386.00,206.63 C386.00,209.47 388.06,213.00 389.72,213.00 C390.04,213.00 397.55,213.99 406.40,215.19 C416.98,216.63 427.90,217.41 438.25,217.44 C446.91,217.47 454.00,217.85 454.00,218.28 C454.00,218.71 453.30,220.74 452.45,222.78 C450.61,227.18 446.85,231.38 442.00,234.44 ZM 342.50 207.00 C343.91,209.28 328.96,206.70 323.25,203.67 C321.46,202.72 320.00,201.28 320.00,200.46 C320.00,196.86 332.87,192.37 351.54,189.46 C365.62,187.26 398.95,186.43 411.98,187.95 C429.70,190.01 437.33,193.80 432.23,197.99 C429.99,199.83 420.55,203.25 414.25,204.51 C410.29,205.30 409.83,203.51 413.74,202.53 C419.72,201.03 420.70,197.84 415.75,195.97 C411.04,194.18 377.38,193.51 363.75,194.93 C349.49,196.41 339.44,198.48 336.18,200.62 L 333.63 202.29 L 335.93 204.14 C337.19,205.16 339.05,206.00 340.05,206.00 C341.06,206.00 342.16,206.45 342.50,207.00 ZM 530.28 197.15 L 535.50 198.80 L 531.00 198.80 C521.71,198.79 509.00,194.59 509.00,191.53 C509.00,182.48 569.34,174.82 604.12,179.45 C620.85,181.68 626.16,184.89 620.77,189.52 C618.18,191.75 602.90,196.47 600.69,195.73 C600.04,195.51 601.64,194.38 604.25,193.22 C615.56,188.20 605.49,185.00 578.42,185.00 C553.92,185.00 531.20,187.85 525.14,191.69 C522.09,193.63 523.34,194.96 530.28,197.15 Z" fill="rgb(3,124,223)"/>
<path d="M 1023.50 447.15 C1016.43,450.33 1000.93,450.80 992.68,448.09 C978.75,443.50 971.99,434.52 972.01,420.62 C972.02,413.79 975.02,406.07 979.12,402.32 C982.71,399.04 991.19,395.10 997.05,393.99 C999.92,393.45 1009.41,393.00 1018.14,393.00 L 1034.00 393.00 L 1034.00 390.15 C1034.00,382.96 1029.57,375.62 1023.60,372.91 C1014.98,368.99 996.83,371.31 987.80,377.47 C985.77,378.86 983.90,380.00 983.64,380.00 C983.38,380.00 981.30,376.53 979.01,372.29 C978.84,371.96 978.67,371.65 978.51,371.35 C976.49,367.62 975.48,365.76 975.92,364.34 C976.39,362.81 978.57,361.81 983.00,359.54 C994.72,353.54 1008.52,351.22 1021.99,353.00 C1041.32,355.54 1052.17,365.42 1054.96,383.00 C1055.52,386.58 1055.99,402.89 1055.99,419.25 L 1056.00 449.00 L 1035.00 449.00 L 1035.00 438.61 L 1031.75 441.75 C1029.96,443.48 1026.25,445.91 1023.50,447.15 ZM 1201.00 422.55 L 1201.00 449.00 L 1179.00 449.00 L 1179.00 318.00 L 1201.00 318.00 L 1201.00 395.17 L 1222.20 374.59 L 1243.40 354.00 L 1269.46 354.00 L 1259.48 364.25 C1253.99,369.89 1245.53,378.58 1240.69,383.58 L 1231.88 392.66 L 1243.74 408.58 C1265.85,438.26 1273.00,448.01 1273.00,448.51 C1273.00,448.78 1267.18,449.00 1260.07,449.00 L 1247.15 449.00 L 1231.98 428.50 C1223.63,417.23 1216.50,408.00 1216.13,408.00 C1215.75,408.00 1212.20,411.27 1208.22,415.27 ZM 861.00 343.00 L 861.00 449.00 L 838.00 449.00 L 838.00 343.00 L 798.00 343.00 L 798.00 324.00 L 901.00 324.00 L 901.00 343.00 ZM 1137.54 448.47 C1130.22,450.35 1117.28,450.35 1110.27,448.46 C1092.68,443.72 1079.47,430.59 1075.54,413.91 C1071.36,396.17 1075.41,380.05 1087.22,367.43 C1097.95,355.95 1113.47,350.68 1130.33,352.79 C1144.29,354.53 1154.56,360.14 1161.05,369.57 L 1164.04 373.91 L 1158.77 377.27 C1155.87,379.11 1152.09,381.45 1150.38,382.45 L 1147.25 384.28 L 1143.44 380.07 C1133.14,368.67 1116.27,368.05 1104.93,378.67 C1098.13,385.03 1095.66,391.78 1096.23,402.50 C1096.70,411.40 1099.00,417.14 1104.36,422.84 C1109.90,428.72 1114.40,430.48 1124.00,430.48 C1133.95,430.48 1137.29,429.10 1143.68,422.31 L 1147.86 417.87 L 1155.93 422.52 C1160.37,425.08 1164.00,427.50 1164.00,427.89 C1164.00,428.28 1161.86,431.22 1159.25,434.42 C1153.66,441.27 1145.83,446.34 1137.54,448.47 ZM 931.00 424.17 L 931.00 449.00 L 909.00 449.00 L 909.00 354.00 L 930.00 354.00 L 930.00 366.25 L 934.57 362.04 C940.73,356.37 946.94,353.78 955.75,353.21 L 963.00 352.74 L 963.00 372.73 L 956.00 373.23 C942.77,374.18 934.66,381.09 932.16,393.53 C931.47,397.02 931.00,409.25 931.00,424.17 ZM 1002.50 432.50 C1007.64,434.32 1013.49,434.36 1019.27,432.62 C1029.12,429.65 1034.00,423.34 1034.00,413.54 L 1034.00 408.00 L 1019.25 408.02 C1006.86,408.04 1003.82,408.35 1000.26,409.97 C989.83,414.70 991.21,428.50 1002.50,432.50 ZM 809.93 504.25 C807.54,505.47 804.15,506.00 798.75,506.00 L 791.00 506.00 L 791.00 477.00 L 799.63 477.00 C809.91,477.00 813.70,478.79 816.48,484.95 C819.82,492.37 817.02,500.63 809.93,504.25 ZM 1267.55 511.55 C1265.62,513.48 1264.07,514.00 1260.30,513.99 C1255.14,513.97 1250.94,512.35 1250.20,510.10 C1249.84,509.03 1250.30,508.88 1252.12,509.47 C1253.43,509.90 1256.44,510.46 1258.81,510.73 C1264.02,511.31 1267.00,509.15 1267.00,504.79 C1267.00,501.99 1266.92,501.94 1264.78,503.44 C1261.97,505.41 1257.73,505.43 1253.98,503.49 C1247.81,500.30 1246.74,491.42 1251.96,486.75 C1255.32,483.74 1261.30,483.02 1265.27,485.14 C1266.87,486.00 1267.50,486.00 1267.79,485.14 C1268.00,484.51 1268.58,484.00 1269.08,484.00 C1269.59,484.00 1270.00,489.61 1270.00,496.55 C1270.00,508.53 1269.89,509.20 1267.55,511.55 ZM 1187.00 508.50 C1187.00,512.72 1186.65,514.00 1185.50,514.00 C1184.23,514.00 1184.00,511.67 1184.00,499.00 C1184.00,486.33 1184.23,484.00 1185.50,484.00 C1186.32,484.00 1187.00,484.70 1187.00,485.56 C1187.00,486.97 1187.21,486.97 1189.22,485.56 C1192.74,483.09 1199.63,483.54 1202.50,486.41 C1207.29,491.20 1207.00,499.14 1201.89,503.44 C1198.44,506.34 1194.82,506.68 1190.64,504.49 C1189.06,503.67 1187.60,503.00 1187.39,503.00 C1187.17,503.00 1187.00,505.48 1187.00,508.50 ZM 1160.00 508.47 C1160.00,512.72 1159.65,514.00 1158.50,514.00 C1157.23,514.00 1157.00,511.67 1157.00,499.00 C1157.00,486.33 1157.23,484.00 1158.50,484.00 C1159.32,484.00 1160.00,484.70 1160.00,485.56 C1160.00,486.97 1160.21,486.97 1162.22,485.56 C1165.05,483.58 1171.91,483.55 1174.70,485.50 C1177.97,487.79 1179.49,493.42 1178.10,498.07 C1175.99,505.10 1169.48,507.85 1162.95,504.47 L 1160.00 502.95 ZM 794.00 480.00 L 794.00 503.00 L 799.75 503.00 C807.71,503.00 812.10,500.65 813.91,495.44 C815.66,490.37 814.80,486.65 811.03,482.87 C808.40,480.25 807.54,480.00 801.08,480.00 ZM 1044.78 504.44 C1042.37,506.13 1037.77,506.38 1034.39,505.02 C1028.74,502.74 1026.39,495.02 1029.51,488.98 C1031.44,485.26 1033.83,484.00 1039.00,484.00 C1044.17,484.00 1046.56,485.26 1048.49,488.98 C1051.25,494.32 1049.64,501.04 1044.78,504.44 ZM 855.60 502.60 C853.08,505.12 851.33,506.00 848.85,506.00 C841.02,505.99 835.60,498.76 837.99,491.52 C840.57,483.71 850.37,481.22 856.08,486.92 C858.47,489.32 859.00,490.69 859.00,494.52 C859.00,498.51 858.50,499.70 855.60,502.60 ZM 1098.22 495.25 C1097.99,503.90 1097.65,506.00 1096.47,506.00 C1095.66,506.00 1094.97,505.77 1094.94,505.50 C1094.91,505.23 1094.89,502.08 1094.89,498.50 C1094.89,472.56 1094.93,472.50 1103.00,486.64 C1106.03,491.94 1108.95,496.29 1109.50,496.30 C1110.05,496.31 1112.85,492.08 1115.71,486.91 C1123.29,473.23 1124.00,473.62 1124.00,491.43 C1124.00,503.71 1123.76,506.00 1122.50,506.00 C1121.26,506.00 1121.00,504.08 1120.99,494.75 L 1120.97 483.50 L 1115.74 492.75 C1112.86,497.83 1110.02,502.00 1109.43,502.00 C1108.84,502.00 1106.14,498.06 1103.43,493.25 L 1098.50 484.50 ZM 932.22 494.92 C931.99,503.86 931.65,506.00 930.47,506.00 C929.25,506.00 929.00,503.58 929.00,491.50 C929.00,479.53 929.25,477.00 930.44,477.00 C931.24,477.00 934.43,481.50 937.55,487.00 C940.66,492.50 943.52,497.00 943.90,497.00 C944.29,497.00 947.05,492.62 950.05,487.26 C953.18,481.68 956.25,477.38 957.26,477.19 C958.85,476.88 959.00,478.10 959.00,491.43 C959.00,503.71 958.76,506.00 957.50,506.00 C956.26,506.00 956.00,504.17 956.00,495.50 C956.00,489.73 955.66,485.00 955.25,485.00 C954.84,485.01 952.30,488.85 949.61,493.54 C946.93,498.24 944.23,501.91 943.61,501.71 C943.00,501.51 940.25,497.40 937.50,492.59 L 932.50 483.83 ZM 908.14 504.09 C905.68,506.08 901.01,506.48 897.39,505.02 C890.67,502.31 888.72,492.13 893.92,486.92 C896.21,484.63 897.74,484.00 900.99,484.00 C906.41,484.00 908.86,485.41 910.58,489.55 C913.20,495.81 912.98,496.00 903.00,496.00 C897.41,496.00 894.00,496.40 894.00,497.05 C894.00,497.62 895.10,499.20 896.45,500.55 C899.15,503.25 903.76,503.79 906.97,501.79 C909.88,499.97 910.86,501.88 908.14,504.09 ZM 1144.01 505.00 C1139.65,507.33 1132.35,505.25 1131.39,501.41 C1130.04,496.06 1133.95,493.00 1142.15,493.00 C1145.19,493.00 1146.00,492.62 1146.00,491.20 C1146.00,490.21 1145.46,488.86 1144.80,488.20 C1143.30,486.70 1135.36,486.62 1134.45,488.09 C1133.97,488.86 1133.45,488.84 1132.64,488.02 C1130.77,486.13 1134.77,484.00 1140.19,484.00 C1147.70,484.00 1149.00,485.91 1149.00,497.00 C1149.00,505.16 1148.19,507.74 1146.50,505.00 C1146.08,504.33 1145.26,504.33 1144.01,505.00 ZM 1162.45 500.55 C1166.78,504.87 1173.05,503.42 1174.95,497.65 C1177.85,488.87 1168.41,482.59 1161.97,489.03 C1159.13,491.87 1159.36,497.45 1162.45,500.55 ZM 843.79 501.64 C846.43,503.64 851.10,503.26 853.69,500.83 C856.44,498.24 856.81,492.60 854.44,489.22 C852.44,486.36 845.12,486.07 842.80,488.75 C839.52,492.54 840.00,498.76 843.79,501.64 ZM 1190.08 501.25 C1193.36,503.93 1198.45,503.52 1200.93,500.37 C1202.07,498.92 1203.00,496.50 1203.00,495.00 C1203.00,487.54 1193.51,483.99 1188.98,489.75 C1186.33,493.13 1186.85,498.61 1190.08,501.25 ZM 1033.45 500.55 C1038.21,505.30 1045.54,502.77 1046.62,496.00 C1047.44,490.86 1044.18,487.00 1039.00,487.00 C1031.81,487.00 1028.36,495.45 1033.45,500.55 ZM 1255.50 500.81 C1261.19,504.03 1267.00,500.67 1267.00,494.15 C1267.00,489.26 1264.25,486.57 1259.39,486.71 C1254.63,486.84 1252.00,489.41 1252.02,493.90 C1252.03,497.97 1252.65,499.19 1255.50,500.81 ZM 868.00 498.50 C868.00,504.50 867.70,506.00 866.50,506.00 C865.26,506.00 865.00,504.11 865.00,495.00 C865.00,486.18 865.28,484.00 866.42,484.00 C867.20,484.00 868.00,484.51 868.21,485.14 C868.50,486.00 869.13,486.00 870.73,485.14 C873.98,483.40 879.50,483.77 882.14,485.91 C884.25,487.62 884.54,488.79 884.85,496.91 C885.15,504.72 884.97,506.00 883.60,506.00 C882.28,506.00 882.00,504.73 882.00,498.72 C882.00,489.75 880.46,487.00 875.44,487.00 C869.72,487.00 868.00,489.67 868.00,498.50 ZM 1226.00 498.72 C1226.00,504.52 1225.70,506.00 1224.50,506.00 C1223.26,506.00 1223.00,504.11 1223.00,495.00 C1223.00,485.89 1223.26,484.00 1224.50,484.00 C1225.32,484.00 1226.00,484.74 1226.00,485.65 C1226.00,487.19 1226.13,487.19 1227.83,485.65 C1229.85,483.83 1236.10,483.45 1238.96,484.98 C1241.60,486.39 1243.00,491.31 1243.00,499.15 C1243.00,504.57 1242.69,506.00 1241.50,506.00 C1240.30,506.00 1240.00,504.52 1240.00,498.72 C1240.00,489.50 1238.50,487.00 1233.00,487.00 C1227.50,487.00 1226.00,489.50 1226.00,498.72 ZM 990.78 504.44 C986.91,507.15 976.00,505.61 976.00,502.35 C976.00,501.24 976.57,501.07 978.25,501.66 C979.49,502.10 982.53,502.47 985.00,502.48 C989.12,502.50 989.50,502.29 989.50,500.03 C989.50,497.93 988.77,497.36 984.50,496.18 C976.17,493.86 973.84,490.16 978.05,485.95 C979.72,484.28 981.13,483.96 985.79,484.20 C990.45,484.45 991.55,484.84 991.84,486.40 C992.13,487.91 991.83,488.13 990.35,487.50 C986.20,485.74 983.40,485.86 980.96,487.92 C978.60,489.91 978.58,490.06 980.34,491.43 C981.36,492.21 983.95,493.15 986.11,493.52 C988.27,493.88 990.71,494.85 991.52,495.66 C993.77,497.92 993.37,502.62 990.78,504.44 ZM 1058.80 497.95 C1058.60,502.75 1058.06,505.48 1057.25,505.75 C1056.30,506.07 1056.00,503.50 1056.00,495.08 C1056.00,488.36 1056.39,484.00 1057.00,484.00 C1057.55,484.00 1058.00,484.70 1058.00,485.56 C1058.00,486.97 1058.21,486.97 1060.22,485.56 C1063.46,483.29 1070.54,483.54 1073.00,486.00 C1074.70,487.70 1075.00,489.33 1075.00,497.00 C1075.00,504.33 1074.72,506.00 1073.50,506.00 C1072.29,506.00 1072.00,504.41 1072.00,497.70 C1072.00,488.27 1071.28,487.00 1065.95,487.00 C1060.58,487.00 1059.15,489.18 1058.80,497.95 ZM 1011.55 503.55 C1008.87,506.22 1003.89,506.71 998.70,504.82 C995.64,503.70 995.56,501.29 998.61,501.85 C1005.80,503.17 1008.68,503.09 1009.97,501.54 C1011.86,499.26 1009.61,497.15 1003.93,495.87 C998.39,494.63 997.00,493.44 997.00,489.93 C997.00,486.16 1000.28,484.00 1005.97,484.02 C1011.12,484.03 1013.24,484.99 1012.13,486.79 C1011.54,487.74 1010.62,487.76 1008.11,486.89 C1004.06,485.48 1000.00,487.00 1000.00,489.93 C1000.00,491.36 1001.03,492.19 1003.75,492.95 C1005.81,493.52 1008.06,493.99 1008.75,493.99 C1010.51,494.00 1014.00,497.69 1014.00,499.55 C1014.00,500.40 1012.90,502.20 1011.55,503.55 ZM 827.21 497.75 C826.98,504.18 826.60,506.00 825.46,506.00 C824.27,506.00 824.00,503.98 824.00,495.00 C824.00,485.89 824.26,484.00 825.50,484.00 C826.33,484.00 827.00,484.71 827.00,485.57 C827.00,487.00 827.14,487.00 828.57,485.57 C830.45,483.70 834.01,483.48 833.98,485.25 C833.97,485.94 832.50,487.17 830.73,488.00 C827.51,489.49 827.50,489.54 827.21,497.75 ZM 894.51 493.02 C895.17,494.09 907.27,494.40 908.29,493.37 C909.49,492.18 906.06,487.23 903.60,486.62 C899.02,485.47 892.63,489.97 894.51,493.02 ZM 1134.93 501.42 C1136.62,503.45 1142.40,503.46 1144.43,501.43 C1145.29,500.56 1146.00,498.97 1146.00,497.88 C1146.00,496.12 1145.42,495.93 1140.85,496.20 C1135.03,496.54 1132.64,498.65 1134.93,501.42 ZM 970.00 495.00 C970.00,504.11 969.74,506.00 968.50,506.00 C967.26,506.00 967.00,504.11 967.00,495.00 C967.00,485.89 967.26,484.00 968.50,484.00 C969.74,484.00 970.00,485.89 970.00,495.00 ZM 1022.00 495.00 C1022.00,504.11 1021.74,506.00 1020.50,506.00 C1019.26,506.00 1019.00,504.11 1019.00,495.00 C1019.00,485.89 1019.26,484.00 1020.50,484.00 C1021.74,484.00 1022.00,485.89 1022.00,495.00 ZM 1215.00 495.00 C1215.00,504.11 1214.74,506.00 1213.50,506.00 C1212.26,506.00 1212.00,504.11 1212.00,495.00 C1212.00,485.89 1212.26,484.00 1213.50,484.00 C1214.74,484.00 1215.00,485.89 1215.00,495.00 ZM 971.00 477.00 C971.00,478.33 970.33,479.00 969.00,479.00 C967.67,479.00 967.00,478.33 967.00,477.00 C967.00,475.67 967.67,475.00 969.00,475.00 C970.33,475.00 971.00,475.67 971.00,477.00 ZM 1022.38 477.46 C1021.69,479.24 1019.43,479.50 1018.45,477.91 C1017.51,476.39 1019.55,474.61 1021.42,475.33 C1022.31,475.67 1022.72,476.57 1022.38,477.46 ZM 1215.00 477.00 C1215.00,478.10 1214.35,479.00 1213.56,479.00 C1211.79,479.00 1210.66,477.35 1211.50,476.00 C1212.59,474.24 1215.00,474.93 1215.00,477.00 Z" fill="rgb(76,91,105)"/>
<path d="M 146.28 462.02 L 150.16 451.68 L 146.89 443.21 C147.08,443.63 147.26,444.06 147.45,444.48 L 150.04 450.34 L 156.06 438.12 C176.61,396.44 212.89,359.30 270.00,321.46 C292.25,306.72 309.22,296.90 333.26,284.87 C361.69,270.64 370.39,267.16 352.75,277.07 C306.91,302.83 262.10,335.88 230.87,366.96 C206.03,391.68 190.26,412.34 178.36,435.74 C172.13,447.99 169.76,454.15 166.35,466.90 C164.48,473.92 163.62,480.26 163.14,490.50 L 162.50 504.50 L 155.65 496.50 C147.04,486.44 140.73,476.87 134.31,464.07 C137.32,469.71 139.96,473.18 141.31,472.73 C141.90,472.53 144.14,467.71 146.28,462.02 ZM 256.00 564.79 L 259.50 565.80 L 255.50 565.78 C243.71,565.72 226.64,561.42 214.10,555.36 C206.24,551.55 203.29,549.40 196.04,542.16 C186.52,532.64 181.47,524.29 178.41,513.00 C175.84,503.53 176.03,485.19 178.82,473.78 C186.93,440.54 208.80,405.84 243.16,371.52 C241.09,373.90 241.00,375.12 241.00,378.54 C241.00,383.36 243.51,393.00 244.77,393.00 C245.02,393.00 250.46,387.87 257.67,380.86 C218.78,421.39 196.89,463.03 196.71,498.00 C196.62,515.59 201.56,529.18 212.18,540.53 C224.12,553.30 232.92,558.17 256.00,564.79 ZM 344.50 260.00 C344.50,261.83 343.90,262.59 342.25,262.82 C339.79,263.17 338.39,261.02 339.39,258.43 C339.75,257.49 340.89,256.99 342.25,257.18 C343.90,257.41 344.50,258.17 344.50,260.00 ZM 393.50 316.00 C393.50,317.83 392.90,318.59 391.25,318.82 C388.79,319.17 387.39,317.02 388.39,314.43 C388.75,313.49 389.89,312.99 391.25,313.18 C392.90,313.41 393.50,314.17 393.50,316.00 ZM 530.28 197.15 C529.93,197.04 529.59,196.93 529.27,196.83 C532.14,197.64 535.69,198.31 538.85,198.55 C541.25,198.73 543.46,199.12 543.77,199.44 C544.36,200.03 537.29,199.98 533.00,199.37 C531.52,199.16 530.10,198.94 528.75,198.72 C529.52,198.77 530.27,198.80 531.00,198.80 L 535.50 198.80 ZM 257.66 497.43 C257.33,498.29 256.58,499.00 256.00,499.00 C254.38,499.00 253.59,496.01 254.87,494.73 C256.38,493.22 258.50,495.26 257.66,497.43 ZM 432.00 328.61 C432.00,329.37 431.10,330.00 430.00,330.00 C428.12,330.00 427.28,328.05 428.60,326.74 C429.57,325.76 432.00,327.10 432.00,328.61 ZM 318.00 375.56 C318.00,377.24 315.43,377.50 314.45,375.91 C314.08,375.31 314.24,374.36 314.80,373.80 C316.06,372.54 318.00,373.60 318.00,375.56 ZM 351.25 207.78 C353.23,208.73 352.95,208.86 349.00,208.86 C345.05,208.86 344.77,208.73 346.75,207.78 C348.37,207.00 349.63,207.00 351.25,207.78 ZM 136.46 404.72 C135.25,395.70 134.88,386.60 135.35,377.26 C135.54,373.41 135.84,369.69 136.26,366.08 C135.12,377.96 135.20,393.01 136.46,404.72 ZM 314.39 312.48 C346.91,289.74 383.34,269.19 427.90,248.13 C384.45,268.67 347.07,289.82 314.39,312.48 ZM 285.50 435.00 C285.90,435.65 285.78,436.62 285.23,437.17 C284.56,437.84 283.98,437.78 283.50,437.00 C283.10,436.35 283.22,435.38 283.77,434.83 C284.44,434.16 285.02,434.22 285.50,435.00 ZM 313.00 508.50 C313.00,510.05 311.82,510.49 310.69,509.36 C309.89,508.56 310.80,507.00 312.06,507.00 C312.58,507.00 313.00,507.67 313.00,508.50 ZM 377.00 382.17 C377.00,382.62 376.58,383.00 376.06,383.00 C374.70,383.00 373.81,381.24 374.84,380.60 C375.81,380.00 377.00,380.86 377.00,382.17 ZM 319.20 232.80 C320.13,233.73 319.87,234.00 318.00,234.00 C316.13,234.00 315.87,233.73 316.80,232.80 C317.73,231.87 318.27,231.87 319.20,232.80 ZM 219.39 509.73 C216.02,497.48 216.02,483.85 219.29,469.13 C218.98,470.60 218.71,472.06 218.48,473.50 C216.26,487.10 216.58,499.21 219.39,509.73 ZM 324.81 274.92 C325.01,275.52 324.42,276.00 323.50,276.00 C322.58,276.00 321.99,275.52 322.19,274.92 C322.39,274.33 322.98,273.85 323.50,273.85 C324.02,273.85 324.61,274.33 324.81,274.92 ZM 377.00 403.94 C377.00,404.46 376.55,405.16 376.00,405.50 C375.45,405.84 375.00,405.42 375.00,404.56 C375.00,403.70 375.45,403.00 376.00,403.00 C376.55,403.00 377.00,403.42 377.00,403.94 ZM 402.60 349.27 C402.94,349.60 403.02,350.44 402.79,351.14 C402.45,352.15 402.21,352.15 401.58,351.13 C400.75,349.78 401.59,348.25 402.60,349.27 ZM 270.67 378.38 C261.68,388.77 253.71,399.11 246.85,409.26 C251.54,402.23 256.78,395.09 262.55,387.84 C264.63,385.22 267.42,381.99 270.67,378.38 ZM 318.83 554.01 C322.05,553.33 325.22,552.57 328.32,551.73 C325.07,552.62 321.73,553.44 318.31,554.19 C311.80,555.62 303.93,556.38 296.03,556.47 C304.04,556.19 312.70,555.31 318.83,554.01 ZM 116.85 374.09 C120.30,337.26 136.53,302.08 164.54,274.50 C136.77,301.84 120.38,337.09 116.85,374.09 ZM 599.57 178.93 C610.19,179.85 618.34,181.57 621.46,184.07 C619.04,182.19 613.30,180.67 604.12,179.45 C602.65,179.26 601.13,179.08 599.57,178.93 ZM 524.64 183.65 C534.43,181.22 546.96,179.60 559.77,178.78 C546.59,179.70 533.99,181.43 524.64,183.65 ZM 286.30 353.89 C293.22,347.86 300.25,342.15 308.61,335.74 C301.17,341.55 293.05,348.13 286.30,353.89 ZM 330.35 320.16 C331.92,319.34 331.10,320.37 327.01,323.77 C326.15,324.48 325.31,325.19 324.46,325.90 C328.16,322.72 330.69,320.36 330.52,320.18 C330.49,320.15 330.43,320.14 330.35,320.16 ZM 512.87 194.88 C508.27,192.96 507.64,190.87 511.02,188.65 C509.71,189.58 509.00,190.55 509.00,191.53 C509.00,192.59 510.51,193.78 512.87,194.88 ZM 618.79 190.68 C616.65,191.84 613.70,192.94 610.05,193.93 C609.79,194.00 609.53,194.06 609.28,194.13 C612.76,193.11 616.47,191.80 618.79,190.68 ZM 358.44 540.19 C373.04,532.71 386.36,522.79 399.05,510.08 C386.29,522.87 373.09,532.72 358.44,540.19 ZM 256.58 549.64 C261.43,551.59 266.97,553.30 272.41,554.54 C271.17,554.29 269.99,554.02 268.87,553.72 C264.51,552.57 260.41,551.21 256.58,549.64 ZM 321.77 328.17 C318.77,330.73 315.82,333.29 312.93,335.86 C315.82,333.23 318.46,330.92 320.72,329.05 C321.07,328.75 321.42,328.46 321.77,328.17 ZM 223.43 520.53 C227.37,528.50 233.10,535.28 240.60,540.83 C233.08,535.30 227.33,528.51 223.43,520.53 ZM 622.64 185.51 C622.65,185.54 622.67,185.58 622.68,185.61 C623.07,186.64 622.67,187.71 621.55,188.78 C622.67,187.59 623.04,186.50 622.64,185.51 ZM 600.60 195.40 C600.63,195.04 601.80,194.30 604.25,193.22 C602.29,194.09 600.90,194.94 600.60,195.40 ZM 523.58 193.53 C523.57,193.45 523.58,193.36 523.60,193.27 C523.59,193.36 523.58,193.45 523.58,193.53 Z" fill="rgb(87,198,220)"/>
<path d="M 0.00 378.00 L 0.00 0.00 L 693.50 0.00 L 1387.00 0.00 L 1387.00 378.00 L 1387.00 756.00 L 693.50 756.00 L 0.00 756.00 L 0.00 378.00 ZM 256.00 564.79 C232.92,558.17 224.12,553.30 212.18,540.53 C201.56,529.18 196.62,515.59 196.71,498.00 C196.92,456.29 228.02,405.11 282.00,357.61 C298.70,342.91 329.49,319.16 330.52,320.18 C330.74,320.41 326.33,324.40 320.72,329.05 C305.66,341.50 273.82,373.69 262.55,387.84 C222.34,438.34 208.10,483.96 222.07,517.52 C229.44,535.21 245.32,547.50 268.87,553.72 C282.07,557.21 303.62,557.41 318.31,554.19 C350.88,547.05 375.69,533.49 399.05,510.08 C417.16,491.92 429.42,472.90 437.63,450.22 C442.69,436.24 441.65,436.02 435.06,449.70 C426.44,467.58 418.62,478.46 403.54,493.54 C380.35,516.73 357.77,529.29 326.88,536.16 C312.85,539.29 292.21,539.31 280.86,536.22 C258.79,530.21 244.66,517.12 240.95,499.25 C239.07,490.22 240.24,472.25 243.39,461.50 C246.88,449.63 258.02,427.31 267.60,413.00 C295.30,371.64 342.71,325.87 392.65,292.30 C414.89,277.34 448.76,258.00 452.71,258.00 C453.44,258.00 455.26,259.37 456.76,261.04 C460.77,265.49 465.77,266.85 475.92,266.24 C489.36,265.44 493.08,262.70 496.94,250.75 C498.55,245.76 501.02,245.83 508.89,251.08 C518.21,257.31 523.67,264.92 528.14,277.90 C529.18,280.93 530.59,283.75 531.27,284.18 C533.05,285.32 536.77,285.18 537.53,283.95 C538.69,282.07 534.94,268.16 531.32,260.92 C527.55,253.38 518.15,242.49 512.27,238.86 C508.91,236.78 508.83,236.60 510.62,235.26 C514.60,232.26 523.16,228.46 540.81,221.83 L 559.13 214.96 L 561.70 216.98 C565.41,219.90 570.51,219.63 573.55,216.35 C575.77,213.96 576.00,212.86 576.00,204.89 C576.00,194.10 574.52,192.00 566.92,192.00 C560.69,192.00 557.50,194.49 557.78,199.13 C557.89,200.98 557.64,203.03 557.23,203.68 C556.40,204.97 542.36,208.37 520.54,212.57 C504.29,215.69 493.77,215.53 483.00,211.98 C475.45,209.49 469.31,209.78 463.18,212.91 C459.58,214.74 459.01,215.59 457.03,222.12 C455.17,228.24 453.99,230.17 449.08,235.08 C444.19,239.97 440.94,241.97 427.90,248.13 C356.90,281.69 306.54,313.95 259.75,355.85 C215.80,395.22 188.17,435.48 178.82,473.78 C176.03,485.19 175.84,503.53 178.41,513.00 C181.47,524.29 186.52,532.64 196.04,542.16 C203.29,549.40 206.24,551.55 214.10,555.36 C226.64,561.42 243.71,565.72 255.50,565.78 L 259.50 565.80 L 256.00 564.79 ZM 1160.00 508.47 L 1160.00 502.95 L 1162.95 504.47 C1169.48,507.85 1175.99,505.10 1178.10,498.07 C1179.49,493.42 1177.97,487.79 1174.70,485.50 C1171.91,483.55 1165.05,483.58 1162.22,485.56 C1160.21,486.97 1160.00,486.97 1160.00,485.56 C1160.00,484.70 1159.32,484.00 1158.50,484.00 C1157.23,484.00 1157.00,486.33 1157.00,499.00 C1157.00,511.67 1157.23,514.00 1158.50,514.00 C1159.65,514.00 1160.00,512.72 1160.00,508.47 ZM 1187.00 508.50 C1187.00,505.48 1187.17,503.00 1187.39,503.00 C1187.60,503.00 1189.06,503.67 1190.64,504.49 C1194.82,506.68 1198.44,506.34 1201.89,503.44 C1207.00,499.14 1207.29,491.20 1202.50,486.41 C1199.63,483.54 1192.74,483.09 1189.22,485.56 C1187.21,486.97 1187.00,486.97 1187.00,485.56 C1187.00,484.70 1186.32,484.00 1185.50,484.00 C1184.23,484.00 1184.00,486.33 1184.00,499.00 C1184.00,511.67 1184.23,514.00 1185.50,514.00 C1186.65,514.00 1187.00,512.72 1187.00,508.50 ZM 1267.55 511.55 C1269.89,509.20 1270.00,508.53 1270.00,496.55 C1270.00,489.61 1269.59,484.00 1269.08,484.00 C1268.58,484.00 1268.00,484.51 1267.79,485.14 C1267.50,486.00 1266.87,486.00 1265.27,485.14 C1261.30,483.02 1255.32,483.74 1251.96,486.75 C1246.74,491.42 1247.81,500.30 1253.98,503.49 C1257.73,505.43 1261.97,505.41 1264.78,503.44 C1266.92,501.94 1267.00,501.99 1267.00,504.79 C1267.00,509.15 1264.02,511.31 1258.81,510.73 C1256.44,510.46 1253.43,509.90 1252.12,509.47 C1250.30,508.88 1249.84,509.03 1250.20,510.10 C1250.94,512.35 1255.14,513.97 1260.30,513.99 C1264.07,514.00 1265.62,513.48 1267.55,511.55 ZM 313.00 508.50 C313.00,507.67 312.58,507.00 312.06,507.00 C310.80,507.00 309.89,508.56 310.69,509.36 C311.82,510.49 313.00,510.05 313.00,508.50 ZM 809.93 504.25 C817.02,500.63 819.82,492.37 816.48,484.95 C813.70,478.79 809.91,477.00 799.63,477.00 L 791.00 477.00 L 791.00 491.50 L 791.00 506.00 L 798.75 506.00 C804.15,506.00 807.54,505.47 809.93,504.25 ZM 827.21 497.75 C827.50,489.54 827.51,489.49 830.73,488.00 C832.50,487.17 833.97,485.94 833.98,485.25 C834.01,483.48 830.45,483.70 828.57,485.57 C827.14,487.00 827.00,487.00 827.00,485.57 C827.00,484.71 826.33,484.00 825.50,484.00 C824.26,484.00 824.00,485.89 824.00,495.00 C824.00,503.98 824.27,506.00 825.46,506.00 C826.60,506.00 826.98,504.18 827.21,497.75 ZM 855.60 502.60 C858.50,499.70 859.00,498.51 859.00,494.52 C859.00,490.69 858.47,489.32 856.08,486.92 C850.37,481.22 840.57,483.71 837.99,491.52 C835.60,498.76 841.02,505.99 848.85,506.00 C851.33,506.00 853.08,505.12 855.60,502.60 ZM 868.00 498.50 C868.00,489.67 869.72,487.00 875.44,487.00 C880.46,487.00 882.00,489.75 882.00,498.72 C882.00,504.73 882.28,506.00 883.60,506.00 C884.97,506.00 885.15,504.72 884.85,496.91 C884.54,488.79 884.25,487.62 882.14,485.91 C879.50,483.77 873.98,483.40 870.73,485.14 C869.13,486.00 868.50,486.00 868.21,485.14 C868.00,484.51 867.20,484.00 866.42,484.00 C865.28,484.00 865.00,486.18 865.00,495.00 C865.00,504.11 865.26,506.00 866.50,506.00 C867.70,506.00 868.00,504.50 868.00,498.50 ZM 908.14 504.09 C910.86,501.88 909.88,499.97 906.97,501.79 C903.76,503.79 899.15,503.25 896.45,500.55 C895.10,499.20 894.00,497.62 894.00,497.05 C894.00,496.40 897.41,496.00 903.00,496.00 C912.98,496.00 913.20,495.81 910.58,489.55 C908.86,485.41 906.41,484.00 900.99,484.00 C897.74,484.00 896.21,484.63 893.92,486.92 C888.72,492.13 890.67,502.31 897.39,505.02 C901.01,506.48 905.68,506.08 908.14,504.09 ZM 932.22 494.92 L 932.50 483.83 L 937.50 492.59 C940.25,497.40 943.00,501.51 943.61,501.71 C944.23,501.91 946.93,498.24 949.61,493.54 C952.30,488.85 954.84,485.01 955.25,485.00 C955.66,485.00 956.00,489.73 956.00,495.50 C956.00,504.17 956.26,506.00 957.50,506.00 C958.76,506.00 959.00,503.71 959.00,491.43 C959.00,478.10 958.85,476.88 957.26,477.19 C956.25,477.38 953.18,481.68 950.05,487.26 C947.05,492.62 944.29,497.00 943.90,497.00 C943.52,497.00 940.66,492.50 937.55,487.00 C934.43,481.50 931.24,477.00 930.44,477.00 C929.25,477.00 929.00,479.53 929.00,491.50 C929.00,503.58 929.25,506.00 930.47,506.00 C931.65,506.00 931.99,503.86 932.22,494.92 ZM 970.00 495.00 C970.00,485.89 969.74,484.00 968.50,484.00 C967.26,484.00 967.00,485.89 967.00,495.00 C967.00,504.11 967.26,506.00 968.50,506.00 C969.74,506.00 970.00,504.11 970.00,495.00 ZM 990.78 504.44 C993.37,502.62 993.77,497.92 991.52,495.66 C990.71,494.85 988.27,493.88 986.11,493.52 C983.95,493.15 981.36,492.21 980.34,491.43 C978.58,490.06 978.60,489.91 980.96,487.92 C983.40,485.86 986.20,485.74 990.35,487.50 C991.83,488.13 992.13,487.91 991.84,486.40 C991.55,484.84 990.45,484.45 985.79,484.20 C981.13,483.96 979.72,484.28 978.05,485.95 C973.84,490.16 976.17,493.86 984.50,496.18 C988.77,497.36 989.50,497.93 989.50,500.03 C989.50,502.29 989.12,502.50 985.00,502.48 C982.53,502.47 979.49,502.10 978.25,501.66 C976.57,501.07 976.00,501.24 976.00,502.35 C976.00,505.61 986.91,507.15 990.78,504.44 ZM 1011.55 503.55 C1012.90,502.20 1014.00,500.40 1014.00,499.55 C1014.00,497.69 1010.51,494.00 1008.75,493.99 C1008.06,493.99 1005.81,493.52 1003.75,492.95 C1001.03,492.19 1000.00,491.36 1000.00,489.93 C1000.00,487.00 1004.06,485.48 1008.11,486.89 C1010.62,487.76 1011.54,487.74 1012.13,486.79 C1013.24,484.99 1011.12,484.03 1005.97,484.02 C1000.28,484.00 997.00,486.16 997.00,489.93 C997.00,493.44 998.39,494.63 1003.93,495.87 C1009.61,497.15 1011.86,499.26 1009.97,501.54 C1008.68,503.09 1005.80,503.17 998.61,501.85 C995.56,501.29 995.64,503.70 998.70,504.82 C1003.89,506.71 1008.87,506.22 1011.55,503.55 ZM 1022.00 495.00 C1022.00,485.89 1021.74,484.00 1020.50,484.00 C1019.26,484.00 1019.00,485.89 1019.00,495.00 C1019.00,504.11 1019.26,506.00 1020.50,506.00 C1021.74,506.00 1022.00,504.11 1022.00,495.00 ZM 1044.78 504.44 C1049.64,501.04 1051.25,494.32 1048.49,488.98 C1046.56,485.26 1044.17,484.00 1039.00,484.00 C1033.83,484.00 1031.44,485.26 1029.51,488.98 C1026.39,495.02 1028.74,502.74 1034.39,505.02 C1037.77,506.38 1042.37,506.13 1044.78,504.44 ZM 1058.80 497.95 C1059.15,489.18 1060.58,487.00 1065.95,487.00 C1071.28,487.00 1072.00,488.27 1072.00,497.70 C1072.00,504.41 1072.29,506.00 1073.50,506.00 C1074.72,506.00 1075.00,504.33 1075.00,497.00 C1075.00,489.33 1074.70,487.70 1073.00,486.00 C1070.54,483.54 1063.46,483.29 1060.22,485.56 C1058.21,486.97 1058.00,486.97 1058.00,485.56 C1058.00,484.70 1057.55,484.00 1057.00,484.00 C1056.39,484.00 1056.00,488.36 1056.00,495.08 C1056.00,503.50 1056.30,506.07 1057.25,505.75 C1058.06,505.48 1058.60,502.75 1058.80,497.95 ZM 1098.22 495.25 L 1098.50 484.50 L 1103.43 493.25 C1106.14,498.06 1108.84,502.00 1109.43,502.00 C1110.02,502.00 1112.86,497.83 1115.74,492.75 L 1120.97 483.50 L 1120.99 494.75 C1121.00,504.08 1121.26,506.00 1122.50,506.00 C1123.76,506.00 1124.00,503.71 1124.00,491.43 C1124.00,473.62 1123.29,473.23 1115.71,486.91 C1112.85,492.08 1110.05,496.31 1109.50,496.30 C1108.95,496.29 1106.03,491.94 1103.00,486.64 C1094.93,472.50 1094.89,472.56 1094.89,498.50 C1094.89,502.08 1094.91,505.23 1094.94,505.50 C1094.97,505.77 1095.66,506.00 1096.47,506.00 C1097.65,506.00 1097.99,503.90 1098.22,495.25 ZM 1144.01 505.00 C1145.26,504.33 1146.08,504.33 1146.50,505.00 C1148.19,507.74 1149.00,505.16 1149.00,497.00 C1149.00,485.91 1147.70,484.00 1140.19,484.00 C1134.77,484.00 1130.77,486.13 1132.64,488.02 C1133.45,488.84 1133.97,488.86 1134.45,488.09 C1135.36,486.62 1143.30,486.70 1144.80,488.20 C1145.46,488.86 1146.00,490.21 1146.00,491.20 C1146.00,492.62 1145.19,493.00 1142.15,493.00 C1133.95,493.00 1130.04,496.06 1131.39,501.41 C1132.35,505.25 1139.65,507.33 1144.01,505.00 ZM 1215.00 495.00 C1215.00,485.89 1214.74,484.00 1213.50,484.00 C1212.26,484.00 1212.00,485.89 1212.00,495.00 C1212.00,504.11 1212.26,506.00 1213.50,506.00 C1214.74,506.00 1215.00,504.11 1215.00,495.00 ZM 1226.00 498.72 C1226.00,489.50 1227.50,487.00 1233.00,487.00 C1238.50,487.00 1240.00,489.50 1240.00,498.72 C1240.00,504.52 1240.30,506.00 1241.50,506.00 C1242.69,506.00 1243.00,504.57 1243.00,499.15 C1243.00,491.31 1241.60,486.39 1238.96,484.98 C1236.10,483.45 1229.85,483.83 1227.83,485.65 C1226.13,487.19 1226.00,487.19 1226.00,485.65 C1226.00,484.74 1225.32,484.00 1224.50,484.00 C1223.26,484.00 1223.00,485.89 1223.00,495.00 C1223.00,504.11 1223.26,506.00 1224.50,506.00 C1225.70,506.00 1226.00,504.52 1226.00,498.72 ZM 166.35 466.90 C169.76,454.15 172.13,447.99 178.36,435.74 C190.26,412.34 206.03,391.68 230.87,366.96 C262.10,335.88 306.91,302.83 352.75,277.07 C370.39,267.16 361.69,270.64 333.26,284.87 C309.22,296.90 292.25,306.72 270.00,321.46 C212.89,359.30 176.61,396.44 156.06,438.12 L 150.04 450.34 L 147.45 444.48 C143.48,435.50 140.35,425.54 137.88,414.00 C134.68,399.02 134.64,370.15 137.80,355.44 C141.05,340.29 144.38,330.85 151.50,316.50 C172.48,274.24 211.34,244.32 257.96,234.51 C273.28,231.28 296.35,230.48 311.50,232.64 C314.25,233.03 315.19,232.88 314.50,232.17 C312.79,230.40 291.59,228.00 277.72,228.01 C234.42,228.03 195.50,244.01 164.54,274.50 C114.14,324.12 101.90,398.37 133.55,462.54 C140.24,476.11 146.70,486.04 155.65,496.50 L 162.50 504.50 L 163.14 490.50 C163.62,480.26 164.48,473.92 166.35,466.90 ZM 257.66 497.43 C258.50,495.26 256.38,493.22 254.87,494.73 C253.59,496.01 254.38,499.00 256.00,499.00 C256.58,499.00 257.33,498.29 257.66,497.43 ZM 736.50 480.64 C743.93,477.23 750.49,470.44 754.71,461.79 C756.44,458.25 766.40,434.68 776.84,409.43 C787.29,384.17 796.76,361.35 797.90,358.72 L 799.95 353.94 L 786.37 354.22 L 772.79 354.50 L 760.82 384.50 C754.23,401.00 748.52,414.83 748.13,415.24 C747.73,415.65 741.73,402.15 734.78,385.24 L 722.14 354.50 L 691.32 354.24 L 660.50 353.97 L 642.51 371.99 C632.62,381.89 624.18,390.00 623.76,390.00 C623.34,390.00 623.00,373.80 623.00,354.00 L 623.00 318.00 L 609.49 318.00 L 595.99 318.00 L 596.24 383.25 L 596.50 448.50 L 609.75 448.78 L 623.00 449.06 L 623.00 436.31 L 623.00 423.55 L 629.22 417.28 C632.64,413.82 635.74,411.00 636.10,411.00 C636.46,411.00 641.62,417.64 647.55,425.75 C653.49,433.86 659.87,442.41 661.74,444.75 L 665.13 449.00 L 680.51 449.00 C688.96,449.00 696.08,448.66 696.31,448.25 C696.55,447.84 687.58,435.16 676.39,420.07 L 656.04 392.65 L 674.27 374.07 C684.30,363.86 692.86,355.50 693.30,355.50 C693.74,355.50 703.08,376.41 714.05,401.98 C732.63,445.26 733.93,448.68 732.94,451.68 C731.55,455.91 725.95,460.73 721.47,461.57 C718.91,462.05 716.28,461.62 712.20,460.05 C709.06,458.85 705.83,457.64 705.00,457.38 C703.92,457.03 702.17,459.58 698.76,466.44 L 694.02 475.98 L 699.26 478.65 C707.41,482.79 712.69,483.96 722.00,483.66 C728.77,483.45 731.72,482.83 736.50,480.64 ZM 971.00 477.00 C971.00,475.67 970.33,475.00 969.00,475.00 C967.67,475.00 967.00,475.67 967.00,477.00 C967.00,478.33 967.67,479.00 969.00,479.00 C970.33,479.00 971.00,478.33 971.00,477.00 ZM 1022.38 477.46 C1022.72,476.57 1022.31,475.67 1021.42,475.33 C1019.55,474.61 1017.51,476.39 1018.45,477.91 C1019.43,479.50 1021.69,479.24 1022.38,477.46 ZM 1215.00 477.00 C1215.00,474.93 1212.59,474.24 1211.50,476.00 C1210.66,477.35 1211.79,479.00 1213.56,479.00 C1214.35,479.00 1215.00,478.10 1215.00,477.00 ZM 544.79 449.41 C560.21,446.24 572.62,436.98 576.95,425.41 C581.49,413.26 578.80,398.10 570.60,389.66 C564.70,383.58 556.28,379.91 537.07,375.02 C519.36,370.52 512.78,367.95 510.47,364.65 C508.32,361.58 508.60,354.77 511.01,351.71 C517.88,342.98 544.36,343.45 560.90,352.60 C563.32,353.93 565.46,354.87 565.65,354.68 C566.38,353.95 574.00,334.61 574.00,333.48 C574.00,331.45 560.44,325.93 550.24,323.82 C532.54,320.15 510.13,322.56 499.00,329.32 C490.06,334.75 483.34,343.45 481.50,351.95 C480.11,358.36 480.80,369.76 482.84,374.27 C487.56,384.68 499.78,391.74 523.19,397.58 C546.37,403.37 551.00,406.18 551.00,414.50 C551.00,423.39 543.60,427.55 528.00,427.43 C515.00,427.33 500.78,422.88 490.69,415.76 C489.15,414.67 487.70,413.97 487.46,414.20 C487.23,414.43 484.82,419.32 482.11,425.06 C476.45,437.05 476.12,435.94 487.04,441.49 C494.11,445.08 504.92,448.65 512.66,449.95 C520.95,451.34 536.69,451.08 544.79,449.41 ZM 1023.50 447.15 C1026.25,445.91 1029.96,443.48 1031.75,441.75 L 1035.00 438.61 L 1035.00 443.80 L 1035.00 449.00 L 1045.50 449.00 L 1056.00 449.00 L 1055.99 419.25 C1055.99,402.89 1055.52,386.58 1054.96,383.00 C1052.17,365.42 1041.32,355.54 1021.99,353.00 C1008.52,351.22 994.72,353.54 983.00,359.54 C974.14,364.07 974.30,363.56 979.01,372.29 C981.30,376.53 983.38,380.00 983.64,380.00 C983.90,380.00 985.77,378.86 987.80,377.47 C996.83,371.31 1014.98,368.99 1023.60,372.91 C1029.57,375.62 1034.00,382.96 1034.00,390.15 L 1034.00 393.00 L 1018.14 393.00 C1009.41,393.00 999.92,393.45 997.05,393.99 C991.19,395.10 982.71,399.04 979.12,402.32 C975.02,406.07 972.02,413.79 972.01,420.62 C971.99,434.52 978.75,443.50 992.68,448.09 C1000.93,450.80 1016.43,450.33 1023.50,447.15 ZM 1137.54 448.47 C1145.83,446.34 1153.66,441.27 1159.25,434.42 C1161.86,431.22 1164.00,428.28 1164.00,427.89 C1164.00,427.50 1160.37,425.08 1155.93,422.52 L 1147.86 417.87 L 1143.68 422.31 C1137.29,429.10 1133.95,430.48 1124.00,430.48 C1114.40,430.48 1109.90,428.72 1104.36,422.84 C1099.00,417.14 1096.70,411.40 1096.23,402.50 C1095.66,391.78 1098.13,385.03 1104.93,378.67 C1116.27,368.05 1133.14,368.67 1143.44,380.07 L 1147.25 384.28 L 1150.38 382.45 C1152.09,381.45 1155.87,379.11 1158.77,377.27 L 1164.04 373.91 L 1161.05 369.57 C1154.56,360.14 1144.29,354.53 1130.33,352.79 C1113.47,350.68 1097.95,355.95 1087.22,367.43 C1075.41,380.05 1071.36,396.17 1075.54,413.91 C1079.47,430.59 1092.68,443.72 1110.27,448.46 C1117.28,450.35 1130.22,450.35 1137.54,448.47 ZM 861.00 396.00 L 861.00 343.00 L 881.00 343.00 L 901.00 343.00 L 901.00 333.50 L 901.00 324.00 L 849.50 324.00 L 798.00 324.00 L 798.00 333.50 L 798.00 343.00 L 818.00 343.00 L 838.00 343.00 L 838.00 396.00 L 838.00 449.00 L 849.50 449.00 L 861.00 449.00 L 861.00 396.00 ZM 931.00 424.17 C931.00,409.25 931.47,397.02 932.16,393.53 C934.66,381.09 942.77,374.18 956.00,373.23 L 963.00 372.73 L 963.00 362.73 L 963.00 352.74 L 955.75 353.21 C946.94,353.78 940.73,356.37 934.57,362.04 L 930.00 366.25 L 930.00 360.13 L 930.00 354.00 L 919.50 354.00 L 909.00 354.00 L 909.00 401.50 L 909.00 449.00 L 920.00 449.00 L 931.00 449.00 L 931.00 424.17 ZM 1201.00 435.77 L 1201.00 422.55 L 1208.22 415.27 C1212.20,411.27 1215.75,408.00 1216.13,408.00 C1216.50,408.00 1223.63,417.23 1231.98,428.50 L 1247.15 449.00 L 1260.07 449.00 C1267.18,449.00 1273.00,448.78 1273.00,448.51 C1273.00,448.01 1265.85,438.26 1243.74,408.58 L 1231.88 392.66 L 1240.69 383.58 C1245.53,378.58 1253.99,369.89 1259.48,364.25 L 1269.46 354.00 L 1256.43 354.00 L 1243.40 354.00 L 1222.20 374.59 L 1201.00 395.17 L 1201.00 356.59 L 1201.00 318.00 L 1190.00 318.00 L 1179.00 318.00 L 1179.00 383.50 L 1179.00 449.00 L 1190.00 449.00 L 1201.00 449.00 L 1201.00 435.77 ZM 285.50 435.00 C285.02,434.22 284.44,434.16 283.77,434.83 C283.22,435.38 283.10,436.35 283.50,437.00 C283.98,437.78 284.56,437.84 285.23,437.17 C285.78,436.62 285.90,435.65 285.50,435.00 ZM 377.00 403.94 C377.00,403.42 376.55,403.00 376.00,403.00 C375.45,403.00 375.00,403.70 375.00,404.56 C375.00,405.42 375.45,405.84 376.00,405.50 C376.55,405.16 377.00,404.46 377.00,403.94 ZM 377.00 382.17 C377.00,380.86 375.81,380.00 374.84,380.60 C373.81,381.24 374.70,383.00 376.06,383.00 C376.58,383.00 377.00,382.62 377.00,382.17 ZM 318.00 375.56 C318.00,373.60 316.06,372.54 314.80,373.80 C314.24,374.36 314.08,375.31 314.45,375.91 C315.43,377.50 318.00,377.24 318.00,375.56 ZM 402.60 349.27 C401.59,348.25 400.75,349.78 401.58,351.13 C402.21,352.15 402.45,352.15 402.79,351.14 C403.02,350.44 402.94,349.60 402.60,349.27 ZM 432.00 328.61 C432.00,327.10 429.57,325.76 428.60,326.74 C427.28,328.05 428.12,330.00 430.00,330.00 C431.10,330.00 432.00,329.37 432.00,328.61 ZM 393.50 316.00 C393.50,314.17 392.90,313.41 391.25,313.18 C389.89,312.99 388.75,313.49 388.39,314.43 C387.39,317.02 388.79,319.17 391.25,318.82 C392.90,318.59 393.50,317.83 393.50,316.00 ZM 324.81 274.92 C324.61,274.33 324.02,273.85 323.50,273.85 C322.98,273.85 322.39,274.33 322.19,274.92 C321.99,275.52 322.58,276.00 323.50,276.00 C324.42,276.00 325.01,275.52 324.81,274.92 ZM 344.50 260.00 C344.50,258.17 343.90,257.41 342.25,257.18 C340.89,256.99 339.75,257.49 339.39,258.43 C338.39,261.02 339.79,263.17 342.25,262.82 C343.90,262.59 344.50,261.83 344.50,260.00 ZM 442.00 234.44 C446.85,231.38 450.61,227.18 452.45,222.78 C453.30,220.74 454.00,218.71 454.00,218.28 C454.00,217.85 446.91,217.47 438.25,217.44 C427.90,217.41 416.98,216.63 406.40,215.19 C397.55,213.99 390.04,213.00 389.72,213.00 C388.06,213.00 386.00,209.47 386.00,206.63 C386.00,202.17 384.43,201.00 378.43,201.00 C374.65,201.00 372.53,201.58 370.50,203.17 C367.80,205.30 367.75,205.53 368.25,213.49 C368.79,222.23 370.02,225.23 373.74,226.93 C377.50,228.64 380.63,228.19 383.88,225.45 L 386.91 222.90 L 403.56 227.47 C420.39,232.10 431.30,235.52 433.94,236.99 C435.64,237.94 437.27,237.42 442.00,234.44 ZM 319.20 232.80 C318.27,231.87 317.73,231.87 316.80,232.80 C315.87,233.73 316.13,234.00 318.00,234.00 C319.87,234.00 320.13,233.73 319.20,232.80 ZM 351.25 207.78 C349.63,207.00 348.37,207.00 346.75,207.78 C344.77,208.73 345.05,208.86 349.00,208.86 C352.95,208.86 353.23,208.73 351.25,207.78 ZM 342.50 207.00 C342.16,206.45 341.06,206.00 340.05,206.00 C339.05,206.00 337.19,205.16 335.93,204.14 L 333.63 202.29 L 336.18 200.62 C339.44,198.48 349.49,196.41 363.75,194.93 C377.38,193.51 411.04,194.18 415.75,195.97 C420.70,197.84 419.72,201.03 413.74,202.53 C409.83,203.51 410.29,205.30 414.25,204.51 C420.55,203.25 429.99,199.83 432.23,197.99 C437.33,193.80 429.70,190.01 411.98,187.95 C398.95,186.43 365.62,187.26 351.54,189.46 C332.87,192.37 320.00,196.86 320.00,200.46 C320.00,201.28 321.46,202.72 323.25,203.67 C328.96,206.70 343.91,209.28 342.50,207.00 ZM 543.77 199.44 C543.46,199.12 541.25,198.73 538.85,198.55 C532.78,198.10 525.27,196.03 523.96,194.46 C520.01,189.69 547.03,185.00 578.42,185.00 C605.49,185.00 615.56,188.20 604.25,193.22 C597.57,196.18 600.40,196.53 610.05,193.93 C618.98,191.52 623.74,188.38 622.68,185.61 C618.98,175.97 550.20,175.56 519.76,185.00 C501.66,190.61 506.19,195.53 533.00,199.37 C537.29,199.98 544.36,200.03 543.77,199.44 ZM 1162.45 500.55 C1159.36,497.45 1159.13,491.87 1161.97,489.03 C1168.41,482.59 1177.85,488.87 1174.95,497.65 C1173.05,503.42 1166.78,504.87 1162.45,500.55 ZM 1190.08 501.25 C1186.85,498.61 1186.33,493.13 1188.98,489.75 C1193.51,483.99 1203.00,487.54 1203.00,495.00 C1203.00,496.50 1202.07,498.92 1200.93,500.37 C1198.45,503.52 1193.36,503.93 1190.08,501.25 ZM 1255.50 500.81 C1252.65,499.19 1252.03,497.97 1252.02,493.90 C1252.00,489.41 1254.63,486.84 1259.39,486.71 C1264.25,486.57 1267.00,489.26 1267.00,494.15 C1267.00,500.67 1261.19,504.03 1255.50,500.81 ZM 794.00 491.50 L 794.00 480.00 L 801.08 480.00 C807.54,480.00 808.40,480.25 811.03,482.87 C814.80,486.65 815.66,490.37 813.91,495.44 C812.10,500.65 807.71,503.00 799.75,503.00 L 794.00 503.00 L 794.00 491.50 ZM 843.79 501.64 C840.00,498.76 839.52,492.54 842.80,488.75 C845.12,486.07 852.44,486.36 854.44,489.22 C856.81,492.60 856.44,498.24 853.69,500.83 C851.10,503.26 846.43,503.64 843.79,501.64 ZM 894.51 493.02 C892.63,489.97 899.02,485.47 903.60,486.62 C906.06,487.23 909.49,492.18 908.29,493.37 C907.27,494.40 895.17,494.09 894.51,493.02 ZM 1033.45 500.55 C1028.36,495.45 1031.81,487.00 1039.00,487.00 C1044.18,487.00 1047.44,490.86 1046.62,496.00 C1045.54,502.77 1038.21,505.30 1033.45,500.55 ZM 1134.93 501.42 C1132.64,498.65 1135.03,496.54 1140.85,496.20 C1145.42,495.93 1146.00,496.12 1146.00,497.88 C1146.00,498.97 1145.29,500.56 1144.43,501.43 C1142.40,503.46 1136.62,503.45 1134.93,501.42 ZM 1002.50 432.50 C991.21,428.50 989.83,414.70 1000.26,409.97 C1003.82,408.35 1006.86,408.04 1019.25,408.02 L 1034.00 408.00 L 1034.00 413.54 C1034.00,423.34 1029.12,429.65 1019.27,432.62 C1013.49,434.36 1007.64,434.32 1002.50,432.50 Z" fill="rgb(254,254,254)"/>
</g>
</svg>