<?xml version="1.0" standalone="no"?>
<!DOCTYPE svg PUBLIC "-//W3C//DTD SVG 20010904//EN"
 "http://www.w3.org/TR/2001/REC-SVG-20010904/DTD/svg10.dtd">
<svg version="1.0" xmlns="http://www.w3.org/2000/svg"
 width="2816.000000pt" height="1536.000000pt" viewBox="0 0 2816.000000 1536.000000"
 preserveAspectRatio="xMidYMid meet">

<g transform="translate(0.000000,1536.000000) scale(0.100000,-0.100000)"
fill="#000000" stroke="none">
<path d="M20164 12262 c-73 -242 -248 -631 -394 -877 -92 -154 -238 -375 -248
-375 -4 0 -25 7 -47 15 -120 43 -263 -19 -324 -140 -32 -64 -32 -160 -1 -233
l22 -52 -87 -95 c-85 -93 -309 -309 -410 -395 -485 -416 -1014 -761 -1640
-1067 -93 -45 -173 -83 -177 -83 -4 0 -19 21 -32 48 -103 200 -541 374 -1066
422 -97 9 -303 -2 -370 -20 -32 -9 -30 -9 13 -4 30 3 47 1 47 -5 0 -6 5 -11
11 -11 5 0 7 6 3 13 -5 7 -1 6 10 -2 17 -14 17 -15 -2 -22 -15 -6 -20 -16 -18
-38 1 -17 -2 -31 -8 -31 -5 0 1 -11 14 -25 12 -13 25 -24 29 -23 20 2 31 -3
26 -12 -4 -6 -12 -7 -18 -3 -7 4 -7 1 1 -9 8 -9 20 -14 28 -11 8 3 14 0 14 -7
0 -6 -4 -8 -10 -5 -5 3 -10 0 -10 -7 0 -10 -3 -9 -11 2 -9 12 -10 11 -6 -7 4
-16 0 -23 -10 -23 -8 0 -12 4 -9 8 3 5 -1 9 -9 9 -8 0 -14 -3 -13 -6 2 -21 -4
-31 -20 -31 -10 0 -19 -7 -19 -15 0 -10 7 -14 21 -10 41 10 -41 -25 -299 -130
-205 -83 -327 -135 -335 -142 -3 -3 3 -10 13 -18 15 -11 15 -13 2 -18 -9 -4
-12 -13 -8 -23 4 -12 3 -15 -5 -10 -7 4 -12 2 -12 -3 0 -6 9 -11 20 -11 24 0
25 -6 4 -28 -10 -10 -12 -18 -6 -20 6 -2 8 -10 5 -19 -4 -11 -3 -14 6 -9 6 4
9 16 6 27 -8 23 10 25 23 3 8 -15 10 -15 15 0 4 10 1 19 -7 22 -8 3 -12 13 -9
23 3 11 -4 21 -19 28 -22 11 -23 12 -2 12 21 1 36 -18 38 -49 1 -8 8 -15 16
-15 9 0 14 -8 12 -18 -2 -9 2 -17 7 -17 6 0 7 -7 4 -17 -4 -10 -2 -14 5 -9 17
10 31 -24 21 -52 -5 -14 -7 -32 -4 -41 2 -9 0 -23 -6 -31 -8 -12 -9 -10 -4 7
5 19 3 22 -12 16 -16 -6 -17 -5 -3 11 13 16 12 20 -5 32 -13 10 -22 11 -32 3
-15 -13 -18 -39 -4 -39 5 0 13 -9 16 -20 4 -11 9 -18 13 -16 4 2 7 -9 7 -25 0
-16 -4 -29 -8 -29 -5 0 -5 -5 -2 -10 9 -15 25 -2 25 21 0 10 5 19 10 19 6 0
10 -4 10 -10 0 -5 5 -10 11 -10 5 0 7 5 3 12 -5 7 -3 8 6 3 16 -10 33 17 17
28 -8 6 -8 7 3 4 19 -5 27 -49 8 -45 -8 2 -13 -7 -13 -24 1 -16 -4 -24 -10
-20 -5 3 -4 -2 4 -11 8 -10 11 -21 7 -25 -12 -12 -34 27 -29 51 4 19 3 20 -7
5 -7 -12 -8 -24 -1 -36 5 -9 6 -24 1 -32 -4 -8 -4 -24 -1 -34 7 -19 8 -19 23
2 8 12 17 19 21 16 8 -8 -3 -35 -13 -29 -10 6 -22 -24 -14 -36 3 -6 12 -5 22
3 12 10 14 10 8 1 -10 -17 25 -17 43 0 11 9 13 9 7 0 -4 -7 -2 -13 4 -13 6 0
9 -4 6 -9 -3 -5 -25 -8 -49 -6 -23 1 -37 1 -30 -2 7 -2 10 -10 7 -18 -3 -7 0
-16 7 -21 8 -4 10 -3 5 4 -4 7 -4 17 -1 23 10 15 38 -28 31 -48 -4 -10 -2 -14
8 -10 8 3 17 0 20 -8 3 -9 0 -12 -10 -8 -7 3 -14 0 -14 -6 0 -6 5 -11 11 -11
5 0 7 -4 4 -10 -10 -16 -1 -12 67 26 208 119 617 305 1023 468 160 64 340 141
400 171 61 30 101 48 90 39 -31 -24 -235 -123 -491 -237 -431 -192 -1029 -520
-1369 -751 -314 -212 -541 -401 -821 -680 -236 -236 -309 -323 -602 -714 -221
-296 -350 -446 -483 -560 -263 -227 -570 -380 -886 -442 -122 -24 -325 -37
-456 -30 -52 3 -93 1 -99 -5 -8 -7 -9 -6 -4 3 4 6 2 12 -3 12 -6 0 -11 -4 -11
-9 0 -11 -39 -26 -57 -23 -7 2 -13 -2 -13 -8 0 -5 -6 -10 -14 -10 -8 0 -18 -5
-21 -11 -8 -13 27 -8 36 5 4 5 15 6 24 2 14 -5 15 -9 5 -21 -7 -8 -16 -13 -20
-10 -4 3 -13 -2 -20 -10 -7 -8 -19 -15 -27 -15 -8 0 -11 -4 -8 -10 8 -13 -7
-13 -23 0 -9 7 -9 7 -2 -2 16 -19 12 -25 -21 -32 -20 -4 -28 -10 -23 -18 5 -8
2 -9 -10 -5 -9 4 -14 3 -11 -2 9 -15 -14 -24 -29 -12 -7 6 -16 8 -19 4 -4 -3
-14 0 -22 7 -13 11 -16 11 -13 -1 2 -8 -3 -13 -9 -11 -7 1 -13 -2 -13 -7 0 -5
-7 -17 -16 -26 -13 -13 -19 -13 -33 -3 -9 7 -13 8 -8 3 4 -4 -1 -17 -10 -28
-10 -11 -12 -17 -5 -13 12 7 12 4 2 -14 -9 -17 -14 -20 -20 -9 -5 7 -6 17 -3
23 3 5 1 6 -5 2 -7 -4 -12 -16 -12 -28 0 -14 -5 -18 -15 -14 -8 3 -15 1 -15
-4 0 -13 -53 8 -81 32 -81 71 -87 75 -26 16 284 -278 800 -444 1317 -425 428
16 812 133 1200 367 132 79 339 222 556 384 93 70 175 126 184 126 36 0 204
-52 305 -95 190 -79 387 -198 680 -409 334 -241 584 -448 658 -543 47 -61 87
-133 87 -155 -1 -16 -30 -38 -130 -98 -41 -25 -103 -65 -138 -89 -51 -36 -61
-48 -57 -65 5 -17 4 -18 -4 -6 -9 13 -13 12 -28 -4 -13 -14 -13 -16 -2 -8 13
10 19 8 33 -6 9 -10 13 -22 9 -27 -5 -4 -3 -5 4 -1 7 4 10 13 6 21 -12 32 8
13 22 -21 13 -33 17 -35 33 -23 13 10 12 8 -3 -10 -11 -14 -14 -21 -7 -17 6 4
12 3 12 -3 0 -13 -35 -32 -44 -24 -3 3 -6 1 -6 -5 0 -6 5 -14 10 -17 6 -3 10
-12 10 -18 0 -7 -4 -6 -10 3 -9 13 -14 8 -11 -12 1 -8 -26 -4 -36 6 -4 4 -1 6
7 4 8 -1 14 3 13 10 -2 6 -4 18 -5 25 -2 7 6 12 20 11 13 -1 22 4 22 13 0 11
-5 13 -17 8 -10 -4 -27 -9 -38 -10 -20 -2 -22 -24 -3 -36 5 -4 2 -9 -7 -13
-23 -8 -27 -8 -20 4 3 6 1 10 -4 10 -6 0 -11 10 -12 23 0 12 -3 16 -6 10 -6
-17 -44 -17 -41 -1 2 7 -3 13 -11 13 -8 0 -15 -8 -17 -18 -1 -9 1 -15 4 -13
12 7 29 -19 27 -42 -1 -13 3 -26 8 -29 6 -4 7 0 3 8 -4 8 -1 6 7 -4 10 -12 17
-14 22 -8 3 6 12 11 18 11 8 0 7 -3 -2 -9 -11 -7 -11 -9 0 -13 9 -3 0 -12 -21
-21 -29 -14 -31 -15 -7 -11 16 4 27 2 27 -5 0 -6 -8 -11 -17 -11 -26 0 -8 -11
26 -16 28 -5 122 35 226 94 61 35 156 70 159 59 2 -7 8 -47 14 -90 14 -113 57
-193 152 -287 113 -112 250 -184 441 -234 352 -91 738 -44 1027 126 92 54 192
160 238 252 l39 80 2 225 c1 130 -2 215 -6 201 -36 -108 -109 -211 -203 -286
-178 -143 -398 -207 -713 -207 -182 -1 -326 22 -469 74 -95 34 -226 108 -282
158 l-38 34 22 16 c13 9 39 30 60 48 l37 31 40 -37 c52 -48 149 -101 243 -135
266 -95 666 -66 898 65 83 47 169 131 201 197 23 48 28 72 31 159 3 57 1 115
-3 130 -7 27 -8 25 -27 -27 -29 -77 -136 -181 -244 -238 -162 -83 -406 -126
-596 -103 -110 14 -246 49 -311 82 -68 35 -70 37 -33 69 l32 29 63 -30 c111
-53 217 -73 381 -72 128 0 156 3 235 27 49 15 121 44 160 64 77 40 173 128
157 144 -6 6 -37 13 -70 17 -57 7 -63 5 -99 -22 -133 -102 -389 -145 -576 -98
-42 11 -90 27 -108 36 l-32 17 31 30 30 30 68 -23 c59 -21 88 -24 199 -24 150
1 210 18 285 82 55 47 70 85 71 180 1 43 4 89 8 103 8 25 8 25 58 -25 69 -68
78 -119 38 -217 -7 -18 -4 -19 101 -32 40 -6 41 -5 52 33 17 54 14 100 -7 146
-23 52 -95 124 -155 155 -43 23 -58 40 -36 40 5 0 38 13 72 28 35 16 79 35 98
42 79 30 380 180 450 223 41 26 78 47 83 47 5 0 36 21 70 47 34 26 67 51 72
55 6 4 24 18 40 31 17 13 57 40 90 62 33 21 73 51 89 67 34 32 52 35 84 12 12
-8 27 -12 34 -8 7 4 8 3 4 -4 -4 -7 -2 -12 3 -12 6 0 11 7 11 15 0 8 -5 15
-12 15 -6 0 -3 9 7 20 17 19 17 21 2 38 -16 17 -15 20 1 42 9 13 33 40 52 60
19 19 42 44 50 55 14 18 14 19 -2 7 -11 -9 -18 -10 -23 -2 -3 5 -1 10 5 10 6
0 8 4 5 10 -3 6 1 7 10 4 11 -5 14 -2 9 10 -3 9 -1 23 6 31 10 12 9 15 -4 15
-9 0 -16 -6 -16 -14 0 -7 -7 -19 -15 -26 -13 -10 -19 -9 -37 6 -12 11 -18 13
-13 5 6 -10 2 -11 -16 -6 -20 7 -22 6 -12 -7 13 -15 1 -20 -104 -43 -12 -3
-35 -10 -50 -16 -16 -6 -29 -10 -30 -10 -2 0 -10 -2 -18 -5 -8 -4 -36 1 -62 9
-40 13 -48 13 -60 1 -8 -8 -18 -12 -23 -9 -5 3 -11 1 -15 -5 -4 -7 -12 -7 -26
0 -13 7 -19 7 -19 0 0 -5 3 -10 8 -10 4 0 18 -9 31 -19 l24 -19 -84 -40 c-46
-22 -122 -57 -169 -78 -47 -20 -101 -46 -120 -57 -345 -191 -558 -332 -559
-369 -2 -43 -44 -129 -79 -159 -103 -91 -291 -119 -460 -70 -97 29 -172 104
-172 173 0 54 -16 55 -34 2 -10 -31 -13 -64 -9 -107 l5 -62 -46 -23 c-101 -48
-196 -169 -196 -248 0 -27 -6 -33 -49 -54 -27 -12 -54 -20 -59 -16 -6 4 -44
-12 -85 -34 -41 -22 -79 -40 -85 -40 -6 0 -5 21 5 58 20 76 13 175 -17 238
-29 59 -162 194 -345 350 -599 510 -1008 802 -1265 904 -131 53 -300 88 -437
91 -40 1 -70 5 -68 10 18 27 281 27 414 0 52 -11 99 -17 104 -14 6 3 7 1 3 -5
-4 -7 -2 -12 3 -12 6 0 11 5 11 11 0 5 5 7 10 4 6 -3 10 -1 10 4 0 6 7 11 15
11 8 0 15 5 15 11 0 6 7 9 14 6 11 -4 13 -1 9 10 -4 11 -2 14 5 9 7 -4 12 -1
12 9 0 8 7 18 16 22 8 3 13 12 10 19 -3 8 -2 13 2 12 14 -3 62 22 62 32 0 6 4
9 9 6 5 -4 8 5 6 19 -1 14 2 28 8 32 6 3 7 1 3 -5 -11 -18 3 -14 31 8 14 11
22 20 18 20 -5 0 -1 8 8 18 10 10 15 22 12 25 -3 4 -2 5 2 2 3 -3 12 0 20 6 9
9 13 8 13 0 0 -6 -4 -11 -10 -11 -5 0 -10 -5 -10 -11 0 -8 4 -9 13 0 8 6 17 8
20 5 4 -4 2 7 -3 25 -5 18 -5 29 0 26 11 -7 32 30 22 40 -4 4 0 6 8 4 16 -3
90 26 90 35 0 3 -7 3 -15 0 -8 -4 -15 -1 -15 5 0 6 9 11 21 11 12 0 23 8 26
20 5 19 16 25 37 21 5 -1 6 5 2 14 -3 9 -1 15 7 14 6 -1 22 2 35 6 18 6 20 10
11 22 -10 11 -8 12 15 3 34 -13 46 -13 26 0 -13 9 -13 10 0 10 13 0 13 1 0 10
-13 8 -13 10 1 10 15 0 14 8 -3 78 -26 101 -28 301 -4 425 25 129 112 361 143
380 5 3 -9 -29 -29 -71 -96 -196 -112 -466 -43 -707 27 -93 106 -267 167 -368
l35 -57 49 37 c101 77 684 530 796 620 65 51 129 98 142 103 32 12 354 75 481
94 294 44 952 107 1270 121 259 12 290 12 315 5 14 -5 19 -8 11 -9 -21 -2 -94
-78 -79 -84 15 -5 83 18 114 38 12 7 30 12 40 11 10 -2 36 5 57 16 75 37 257
44 470 17 125 -16 192 -45 300 -132 168 -133 405 -207 669 -207 445 0 753 166
808 434 9 46 9 104 0 260 -6 111 -16 221 -21 246 -19 83 -84 177 -183 262
l-61 52 41 -45 c23 -26 45 -56 49 -68 4 -12 12 -20 17 -19 13 5 48 -26 73 -65
18 -28 18 -28 -3 -34 -12 -3 -22 -9 -22 -14 0 -21 -2 -24 -21 -31 -28 -11 -25
-52 5 -68 16 -8 22 -18 19 -29 -4 -9 -3 -13 2 -9 4 4 16 3 26 -3 15 -8 18 -6
13 8 -3 11 0 9 8 -5 11 -17 16 -20 26 -10 17 17 15 -76 -3 -122 -7 -19 -14
-30 -14 -25 -1 6 -17 11 -36 13 -19 1 -48 3 -63 5 l-28 2 13 48 c8 33 10 81 6
145 l-6 95 -23 -51 c-34 -76 -69 -117 -143 -166 -142 -92 -304 -132 -506 -123
-133 6 -243 31 -325 72 l-53 27 25 24 24 25 56 -25 c74 -33 117 -43 220 -55
147 -17 339 13 452 71 41 21 136 105 136 120 0 5 -24 20 -52 32 l-53 23 -40
-32 c-100 -82 -230 -120 -385 -112 -90 5 -230 38 -230 55 0 4 11 15 24 24 23
16 27 17 78 1 36 -12 89 -17 163 -18 121 0 175 14 251 66 56 38 74 80 74 174
0 87 6 90 54 31 31 -38 41 -95 23 -142 -7 -19 -1 -24 50 -43 54 -21 58 -21 70
-5 15 21 17 112 3 148 -12 34 -77 104 -112 122 -32 16 -37 34 -10 34 10 0 23
5 28 10 6 6 86 48 180 94 93 46 198 100 234 121 36 21 81 47 102 59 61 36 130
84 172 124 23 20 73 63 111 95 39 32 88 73 110 91 39 34 39 34 78 19 29 -12
41 -13 50 -4 9 9 9 14 -2 20 -11 7 -10 10 4 18 15 9 13 12 -11 28 -23 15 -25
20 -13 29 20 15 59 67 59 78 0 5 -8 4 -19 -1 -10 -6 -21 -8 -24 -5 -3 3 -27
-1 -55 -9 -27 -8 -73 -14 -101 -13 -29 1 -55 -2 -58 -7 -3 -5 -11 -6 -19 -3
-9 3 -11 0 -7 -11 5 -12 3 -14 -7 -8 -10 6 -12 4 -7 -7 4 -12 -13 -24 -71 -49
-109 -46 -274 -123 -362 -168 -150 -77 -185 -96 -190 -102 -3 -4 -36 -26 -75
-49 -38 -24 -103 -65 -143 -92 l-73 -49 -42 32 -42 31 34 -32 c73 -70 45 -172
-61 -224 -85 -42 -234 -52 -328 -24 -90 27 -150 84 -150 142 0 31 26 86 49
103 9 6 25 19 36 28 18 15 17 15 -10 0 -38 -22 -74 -55 -87 -78 -12 -22 -29
-112 -28 -149 0 -20 -9 -31 -42 -51 -88 -52 -167 -153 -168 -214 0 -22 -27
-42 -77 -57 -22 -7 -23 -4 -23 38 0 25 9 69 19 97 l20 50 -22 -14 c-12 -8 -64
-44 -115 -80 -131 -93 -154 -97 -524 -97 -394 0 -903 25 -1308 65 -154 15
-393 45 -398 50 -1 1 6 40 17 86 23 97 40 262 42 403 1 54 5 93 9 86 5 -8 43
6 129 50 305 153 697 383 684 403 -3 6 -1 7 5 3 20 -12 336 207 582 403 346
276 765 676 926 883 22 28 22 28 60 11 23 -9 66 -16 104 -16 109 0 195 56 241
157 35 78 18 218 -33 273 l-21 23 40 57 c61 88 177 291 259 455 112 224 185
402 257 628 85 267 80 247 63 253 -12 5 -21 -13 -42 -81z m-263 -695 c-10 -9
-11 -8 -5 6 3 10 9 15 12 12 3 -3 0 -11 -7 -18z m-436 -557 c-3 -5 -12 -10
-18 -10 -7 0 -6 4 3 10 19 12 23 12 15 0z m33 -12 c8 -10 5 -13 -13 -13 -18 0
-21 3 -13 13 6 6 12 12 13 12 1 0 7 -6 13 -12z m-38 -478 c0 -5 -8 -10 -17
-10 -15 0 -16 2 -3 10 19 12 20 12 20 0z m-3961 -1234 c-13 -15 -19 -3 -12 24
6 22 7 22 14 4 3 -10 3 -23 -2 -28z m50 -22 c4 3 8 -1 8 -9 0 -11 -4 -12 -14
-4 -7 6 -13 17 -12 23 0 7 2 6 6 -2 2 -6 8 -10 12 -8z m-606 -487 c3 -8 -3
-13 -14 -13 -22 0 -25 12 -6 19 6 3 13 6 13 6 1 1 4 -5 7 -12z m82 -127 c-3
-5 -12 -10 -18 -10 -7 0 -6 4 3 10 19 12 23 12 15 0z m15 -259 c0 -14 -18 -23
-30 -16 -6 4 -8 11 -5 16 8 12 35 12 35 0z m4440 -144 c0 -41 -2 -44 -45 -65
-46 -22 -54 -17 -34 21 10 20 69 87 76 87 2 0 3 -19 3 -43z m-4380 3 c-8 -5
-19 -10 -25 -10 -5 0 -3 5 5 10 8 5 20 10 25 10 6 0 3 -5 -5 -10z m3396 -443
c5 -4 2 -17 -5 -29 -9 -15 -9 -18 0 -13 7 5 10 4 6 -2 -9 -14 -161 -21 -752
-33 -880 -19 -1353 -59 -1714 -146 -78 -18 -147 -31 -152 -28 -5 3 -9 0 -9 -5
0 -6 -5 -11 -11 -11 -8 0 -9 4 0 13 6 8 9 17 6 20 -3 4 -2 5 2 2 3 -3 11 2 17
9 14 19 108 47 285 85 373 82 804 120 1581 140 371 10 736 9 746 -2z m1893
-90 c-2 -1 -15 -11 -29 -22 l-25 -20 19 23 c11 12 24 22 29 22 6 0 8 -1 6 -3z
m-904 -127 c95 -33 211 -50 344 -51 87 -1 116 -4 92 -9 -19 -5 -43 -7 -53 -5
-10 2 -18 -2 -18 -8 0 -8 -3 -8 -8 -2 -4 6 -17 11 -30 11 -18 1 -20 -1 -11
-12 13 -15 4 -17 -26 -5 -12 5 -26 4 -34 -3 -11 -8 -15 -8 -18 2 -3 6 -9 12
-14 12 -4 0 -6 -6 -3 -14 6 -16 -22 -30 -31 -16 -4 6 -3 16 1 23 4 7 3 8 -2 4
-5 -5 -9 -19 -9 -30 0 -12 -5 -22 -12 -22 -6 0 -15 -3 -18 -7 -4 -4 4 -5 18
-2 14 2 28 0 32 -6 17 -27 -193 11 -309 57 -55 21 -206 109 -206 119 0 3 9 0
20 -6 11 -6 26 -8 32 -4 7 4 8 3 4 -4 -3 -6 2 -16 13 -21 17 -9 18 -8 14 12
-3 16 -2 18 5 8 7 -9 12 -10 16 -2 4 6 11 9 16 6 5 -3 18 2 29 11 19 16 19 18
3 31 -9 7 11 0 45 -17 34 -17 87 -39 118 -50z m850 58 c4 4 2 -3 -4 -15 -10
-19 -9 -23 3 -23 8 0 17 6 20 13 4 6 4 1 2 -12 -4 -18 -2 -21 7 -12 16 16 27
14 21 -4 -7 -16 14 -12 46 8 8 5 0 -4 -18 -20 -58 -53 -176 -102 -307 -129
-71 -14 -406 -30 -350 -16 24 6 26 9 13 14 -12 5 -15 13 -11 24 4 12 3 15 -5
10 -8 -5 -10 -1 -5 10 5 14 8 12 20 -10 7 -14 18 -26 24 -26 6 0 7 -4 4 -10
-3 -5 -1 -10 4 -10 14 0 14 6 1 30 -7 14 -6 20 8 25 24 10 82 12 82 3 0 -5 5
-8 11 -8 5 0 8 4 5 9 -9 13 20 21 32 9 8 -8 14 -4 21 15 8 21 17 27 40 27 16
0 32 -6 34 -12 4 -9 6 -8 6 2 1 10 28 23 79 38 42 13 102 36 132 52 34 17 59
25 66 19 6 -5 14 -5 19 -1z m-9197 -2341 c9 3 14 3 10 -1 -3 -4 -14 -9 -25
-11 -10 -1 -17 -8 -15 -16 2 -9 -1 -9 -14 2 -16 13 -16 14 -1 17 10 2 17 9 18
15 0 9 2 9 5 0 3 -7 13 -9 22 -6z m5292 -458 l0 -50 -56 -25 c-31 -14 -59 -23
-62 -20 -9 10 22 71 56 108 48 53 62 50 62 -13z m-880 -624 c7 -9 8 -15 2 -15
-5 0 -12 7 -16 15 -3 8 -4 15 -2 15 2 0 9 -7 16 -15z m51 -91 c-12 -9 -20 -22
-17 -30 3 -7 -4 -18 -15 -24 -14 -8 -19 -8 -17 2 4 17 60 79 67 73 2 -3 -5
-13 -18 -21z m19 -34 c0 -5 -5 -10 -11 -10 -5 0 -7 5 -4 10 3 6 8 10 11 10 2
0 4 -4 4 -10z"/>
<path d="M19975 7520 c3 -5 12 -7 20 -3 21 7 19 13 -6 13 -11 0 -18 -4 -14
-10z"/>
<path d="M13700 10870 c-1 -8 -2 -18 -1 -22 0 -4 -6 -5 -14 -2 -19 8 -107 -35
-99 -48 4 -6 -2 -6 -14 1 -14 7 -23 8 -27 1 -3 -5 -17 -10 -31 -10 -14 0 -33
-4 -42 -9 -9 -5 -30 -11 -47 -14 -116 -20 -385 -142 -565 -256 -52 -34 -99
-61 -104 -61 -6 0 -21 10 -34 23 l-25 22 17 -26 c25 -39 25 -103 0 -136 -37
-52 -107 -77 -221 -81 -121 -5 -187 13 -237 63 -40 39 -49 77 -31 128 11 31
11 36 0 27 -29 -24 -45 -79 -45 -152 0 -72 -1 -74 -32 -92 -47 -28 -108 -86
-134 -127 -14 -22 -34 -39 -51 -43 -91 -23 -414 -181 -540 -264 -48 -32 -106
-69 -128 -82 -55 -33 -169 -117 -207 -152 -10 -10 -22 -18 -28 -18 -5 0 -10
-3 -10 -7 0 -5 -18 -21 -40 -37 -22 -17 -40 -34 -40 -39 0 -4 3 -6 8 -4 4 3
25 8 47 11 56 9 171 35 226 52 25 8 54 16 65 18 81 16 206 57 216 71 4 5 8 7
8 4 0 -5 166 51 222 75 14 7 16 -7 20 -126 3 -112 7 -141 27 -185 45 -101 176
-198 341 -251 85 -28 159 -39 303 -47 152 -9 178 -22 273 -138 86 -106 161
-230 210 -348 20 -50 40 -88 43 -87 182 92 181 92 182 123 1 22 3 24 6 8 4
-21 7 -20 96 22 141 67 515 238 579 266 32 13 58 26 58 29 0 3 -30 16 -67 29
-38 14 -118 50 -180 80 -62 31 -105 48 -96 39 12 -13 13 -18 3 -18 -7 0 -21
-9 -31 -21 -9 -11 -20 -20 -23 -20 -21 3 -27 -1 -23 -12 3 -8 1 -20 -4 -28 -5
-8 -9 -9 -9 -2 0 6 -8 9 -19 6 -12 -3 -17 -11 -14 -23 3 -10 -1 -21 -8 -25 -8
-6 -10 -4 -4 6 6 10 3 9 -11 -2 -10 -9 -25 -15 -32 -13 -7 1 -8 0 -2 -3 7 -3
7 -10 -2 -21 -11 -13 -11 -14 1 -7 9 5 12 4 8 -2 -4 -6 -20 -16 -37 -23 -23
-9 -28 -15 -18 -21 9 -6 6 -9 -10 -9 -15 0 -21 4 -16 12 4 7 3 8 -5 4 -6 -4
-8 -12 -5 -18 4 -6 1 -14 -6 -18 -9 -6 -9 -13 -1 -29 9 -16 9 -19 -2 -16 -7 3
-26 -8 -41 -24 -16 -17 -32 -29 -35 -26 -11 6 -11 -37 0 -57 6 -10 14 -16 19
-13 5 3 11 1 14 -4 3 -5 -3 -11 -13 -14 -14 -3 -21 2 -25 17 -5 16 -8 18 -15
7 -7 -11 -9 -11 -14 0 -4 11 -7 12 -15 1 -6 -9 -12 0 -21 30 -20 69 -98 217
-159 301 -65 91 -203 235 -282 294 -87 66 -135 82 -283 99 -210 23 -360 67
-471 138 -58 37 -129 112 -123 129 2 6 26 24 54 39 l51 28 59 -59 c68 -68 127
-100 250 -137 79 -24 104 -27 243 -28 181 0 248 14 379 76 101 48 183 124 200
184 12 44 13 159 2 189 -7 18 -10 15 -29 -21 -51 -99 -176 -183 -337 -225
-113 -29 -318 -29 -428 0 -81 21 -198 77 -205 98 -2 6 8 19 21 28 23 15 28 14
93 -19 100 -50 178 -67 308 -67 176 0 336 52 415 134 l33 35 -47 21 c-26 12
-53 21 -60 21 -19 0 -56 -46 -50 -62 3 -8 -1 -21 -10 -28 -13 -11 -18 -10 -33
3 -16 15 -23 15 -82 -5 -90 -30 -260 -30 -341 -1 l-55 20 -30 -23 c-28 -23
-64 -32 -64 -16 0 5 11 19 25 32 14 13 25 29 25 35 0 6 10 17 23 24 19 10 35
8 102 -15 70 -23 91 -26 170 -22 185 10 275 87 275 236 0 48 7 52 38 20 31
-34 44 -76 37 -122 -7 -41 -6 -41 40 -64 25 -12 51 -20 56 -17 5 4 9 30 9 59
0 68 -39 131 -111 180 l-52 35 44 20 c24 11 91 38 149 59 155 58 358 153 417
195 29 20 57 37 62 37 5 0 14 7 21 15 6 8 37 31 68 51 32 21 59 40 62 44 3 3
26 18 52 33 26 15 60 39 75 53 14 13 41 34 60 45 18 11 33 24 33 28 0 9 -28 7
-54 -4 -19 -8 -40 11 -29 28 3 5 9 4 13 -3 5 -8 9 -7 13 4 5 12 0 15 -18 14
-13 -1 -23 -7 -22 -13 1 -5 -4 -9 -10 -7 -7 1 -13 -3 -13 -10 0 -6 -3 -8 -6
-5 -4 4 -1 14 7 24 8 9 9 14 2 10 -7 -4 -13 0 -16 10 -4 14 -5 14 -7 3z m44
-56 c-7 -3 -10 -15 -8 -27 4 -21 4 -21 -5 -2 -10 23 -5 35 12 34 9 0 9 -2 1
-5z m-1566 -689 c-2 -2 -20 -6 -40 -10 -27 -5 -38 -4 -38 5 0 7 17 28 38 49
l37 36 3 -39 c2 -21 2 -39 0 -41z"/>
<path d="M13196 9776 c-4 -19 -34 -76 -66 -126 -33 -50 -60 -97 -60 -104 0 -7
27 -42 59 -77 l59 -64 12 30 c11 27 16 362 6 372 -2 2 -7 -12 -10 -31z"/>
<path d="M10910 9430 c0 -5 5 -10 10 -10 6 0 10 5 10 10 0 6 -4 10 -10 10 -5
0 -10 -4 -10 -10z"/>
<path d="M10875 9420 c4 -6 11 -8 16 -5 14 9 11 15 -7 15 -8 0 -12 -5 -9 -10z"/>
<path d="M15298 9393 c7 -3 16 -2 19 1 4 3 -2 6 -13 5 -11 0 -14 -3 -6 -6z"/>
<path d="M15248 9383 c6 -2 18 -2 25 0 6 3 1 5 -13 5 -14 0 -19 -2 -12 -5z"/>
<path d="M15415 9380 c3 -5 10 -10 16 -10 5 0 9 5 9 10 0 6 -7 10 -16 10 -8 0
-12 -4 -9 -10z"/>
<path d="M15158 9363 c7 -3 16 -2 19 1 4 3 -2 6 -13 5 -11 0 -14 -3 -6 -6z"/>
<path d="M15027 9338 c-43 -11 -76 -22 -73 -25 2 -2 21 0 41 6 31 8 36 7 31
-5 -8 -20 10 -17 26 4 7 10 29 23 48 29 59 19 9 12 -73 -9z"/>
<path d="M15405 9339 c-16 -10 -25 -19 -20 -19 6 0 24 9 40 20 17 11 26 20 20
19 -5 0 -23 -9 -40 -20z"/>
<path d="M14918 9303 c7 -3 16 -2 19 1 4 3 -2 6 -13 5 -11 0 -14 -3 -6 -6z"/>
<path d="M13330 9265 c13 -14 26 -25 28 -25 3 0 -5 11 -18 25 -13 14 -26 25
-28 25 -3 0 5 -11 18 -25z"/>
<path d="M21131 9256 c2 -2 15 -9 29 -15 24 -11 24 -11 6 3 -16 13 -49 24 -35
12z"/>
<path d="M15383 9243 c4 -3 2 -12 -4 -20 -7 -8 -8 -13 -1 -13 5 0 12 -14 16
-31 5 -28 7 -29 22 -14 9 9 13 19 10 23 -4 3 -11 0 -16 -8 -7 -11 -9 -9 -7 8
1 16 6 21 16 17 9 -4 5 5 -8 19 -14 15 -27 26 -29 26 -3 0 -2 -3 1 -7z"/>
<path d="M21220 9243 c0 -7 -3 -12 -7 -12 -32 5 -17 -7 52 -41 79 -39 99 -43
76 -16 -9 11 -9 15 1 19 7 3 -2 3 -19 0 -21 -3 -33 -1 -33 6 0 6 -7 11 -16 11
-9 0 -24 10 -35 23 -10 12 -18 16 -19 10z"/>
<path d="M13376 9227 c3 -8 16 -19 30 -25 13 -7 24 -16 24 -21 0 -5 10 -11 21
-14 24 -6 23 -5 -39 42 -23 18 -40 26 -36 18z"/>
<path d="M15338 9234 c-4 -4 -3 -15 2 -25 7 -12 7 -20 0 -24 -5 -3 -10 -12
-10 -18 0 -7 5 -4 11 6 6 9 15 15 21 11 7 -4 7 0 0 12 -5 11 -11 25 -13 32 -3
7 -8 10 -11 6z"/>
<path d="M15240 9216 c0 -2 7 -7 16 -10 8 -3 12 -2 9 4 -6 10 -25 14 -25 6z"/>
<path d="M14786 8843 c-6 -14 -5 -15 5 -6 7 7 10 15 7 18 -3 3 -9 -2 -12 -12z"/>
<path d="M14740 8830 c-13 -8 -13 -10 2 -10 9 0 20 5 23 10 8 13 -5 13 -25 0z"/>
<path d="M14877 8695 c-10 -9 -17 -22 -17 -28 0 -7 4 -6 10 3 9 13 12 13 25
-4 14 -18 35 -15 35 6 0 6 -3 8 -7 4 -4 -3 -12 3 -18 15 -11 19 -13 20 -28 4z"/>
<path d="M19990 8640 c8 -5 20 -10 25 -10 6 0 3 5 -5 10 -8 5 -19 10 -25 10
-5 0 -3 -5 5 -10z"/>
<path d="M14898 8380 c-3 -17 -2 -33 2 -35 3 -2 7 12 8 31 3 42 -4 45 -10 4z"/>
<path d="M14976 8253 c-6 -14 -5 -15 5 -6 7 7 10 15 7 18 -3 3 -9 -2 -12 -12z"/>
<path d="M14990 8216 c0 -2 7 -7 16 -10 8 -3 12 -2 9 4 -6 10 -25 14 -25 6z"/>
<path d="M8684 7880 c-41 -92 -146 -140 -321 -148 -75 -3 -111 -8 -110 -16 1
-6 -3 -10 -10 -9 -7 2 -10 -4 -6 -13 3 -9 0 -20 -7 -24 -11 -7 -11 -11 -1 -24
9 -11 10 -20 2 -35 -12 -21 -11 -48 2 -68 5 -8 3 -13 -4 -13 -8 0 -8 -4 1 -15
10 -12 10 -15 0 -15 -8 0 -11 -3 -7 -6 3 -4 0 -22 -8 -41 -18 -42 -18 -46 -5
-38 12 8 9 -17 -4 -26 -16 -12 99 -33 179 -33 136 1 261 49 310 122 22 32 25
47 25 124 0 49 3 88 8 88 11 0 60 -47 78 -75 12 -18 15 -42 13 -86 l-4 -61 53
-20 c69 -26 77 -18 77 72 0 60 -4 73 -31 112 -33 47 -144 128 -175 128 -16 0
-19 8 -20 48 0 26 -3 63 -7 83 l-7 37 -21 -48z"/>
<path d="M21765 7779 c-5 -4 -20 -17 -31 -27 -17 -16 -25 -17 -35 -8 -8 6 -10
7 -6 2 4 -5 -3 -21 -15 -34 -13 -14 -18 -22 -11 -18 6 3 14 2 18 -4 16 -26 45
-9 71 41 25 51 28 64 9 48z m-42 -62 c7 3 8 2 4 -2 -10 -11 -37 -15 -37 -6 0
14 14 23 18 12 2 -6 9 -8 15 -4z"/>
<path d="M7945 7702 c-49 -37 -115 -121 -115 -147 0 -10 10 -8 40 6 21 10 43
19 49 19 5 0 19 15 30 33 11 18 29 42 41 52 19 17 29 75 13 75 -5 0 -30 -17
-58 -38z"/>
<path d="M21649 7573 c-13 -16 -12 -17 4 -4 16 13 21 21 13 21 -2 0 -10 -8
-17 -17z"/>
<path d="M21604 7518 l-19 -23 23 19 c21 18 27 26 19 26 -2 0 -12 -10 -23 -22z"/>
<path d="M21539 7453 c-13 -16 -12 -17 4 -4 16 13 21 21 13 21 -2 0 -10 -8
-17 -17z"/>
<path d="M9032 7404 c-27 -59 -110 -144 -182 -187 -252 -147 -662 -152 -893
-12 -32 19 -62 35 -66 35 -18 0 -121 -84 -121 -99 0 -27 105 -117 181 -155
112 -55 212 -77 375 -83 160 -6 266 6 389 44 150 47 268 128 318 221 26 49 27
56 25 170 l-3 120 -23 -54z"/>
<path d="M8753 7408 c-56 -59 -183 -108 -319 -123 -73 -8 -209 10 -278 36 -28
10 -52 15 -54 10 -1 -4 -9 -17 -16 -27 -13 -18 -16 -18 -48 -2 -41 19 -70 10
-49 -16 23 -27 132 -74 213 -90 249 -51 542 16 672 153 35 36 31 42 -41 69
l-52 20 -28 -30z"/>
<path d="M21494 7408 l-19 -23 23 19 c12 11 22 21 22 23 0 8 -8 2 -26 -19z"/>
<path d="M21278 7328 c-48 -32 -133 -84 -190 -114 -57 -30 -94 -53 -83 -50 16
5 21 1 21 -14 0 -11 -6 -20 -13 -20 -6 0 -15 -5 -18 -10 -11 -18 100 29 207
87 130 71 220 131 213 144 -4 5 -8 9 -11 9 -3 0 -2 -4 1 -10 3 -5 -3 -10 -14
-10 -19 0 -26 15 -22 43 1 9 10 14 -91 -55z m73 19 c-10 -9 -11 -8 -5 6 3 10
9 15 12 12 3 -3 0 -11 -7 -18z"/>
<path d="M21774 7318 l-19 -23 23 19 c21 18 27 26 19 26 -2 0 -12 -10 -23 -22z"/>
<path d="M21525 7223 c-22 -15 -92 -58 -155 -95 -63 -37 -106 -68 -95 -68 15
0 17 -2 6 -9 -8 -5 -10 -14 -6 -21 4 -7 2 -16 -6 -21 -7 -4 -11 -11 -7 -14 14
-14 388 199 388 222 0 3 -7 0 -15 -7 -8 -7 -15 -9 -15 -4 0 5 -4 2 -10 -6 -5
-8 -12 -11 -16 -7 -4 3 -2 13 5 21 9 11 8 15 -4 20 -8 3 -15 1 -15 -5 0 -6 -5
-7 -10 -4 -6 4 -8 11 -5 16 9 14 3 11 -40 -18z m-200 -153 c-3 -5 -10 -10 -16
-10 -5 0 -9 5 -9 10 0 6 7 10 16 10 8 0 12 -4 9 -10z m10 -20 c-3 -5 -12 -10
-18 -10 -7 0 -6 4 3 10 19 12 23 12 15 0z"/>
<path d="M21669 7233 c-13 -16 -12 -17 4 -4 16 13 21 21 13 21 -2 0 -10 -8
-17 -17z"/>
<path d="M9637 7110 c-331 -16 -402 -34 -567 -140 -63 -41 -150 -89 -192 -108
-203 -88 -502 -124 -737 -88 -63 9 -79 9 -67 0 15 -10 14 -12 -4 -17 -11 -3
-20 -11 -20 -18 0 -10 3 -10 12 -1 17 17 26 15 33 -8 4 -11 15 -20 27 -20 17
0 18 -3 8 -15 -7 -8 -17 -12 -24 -9 -6 3 -2 -2 8 -10 11 -9 14 -16 8 -16 -7 0
-12 -12 -12 -26 0 -23 -3 -26 -26 -21 -18 3 -22 1 -15 -6 6 -6 11 -19 11 -29
0 -10 4 -18 10 -18 14 0 0 -33 -23 -51 -14 -11 -18 -22 -13 -35 7 -18 8 -18
22 0 8 11 14 15 14 9 0 -13 -18 -26 -37 -29 -7 -1 -13 4 -13 12 0 8 -4 14 -10
14 -5 0 -7 -7 -3 -16 4 -12 0 -14 -23 -9 -63 14 -68 14 -34 -2 19 -9 49 -16
67 -17 17 -1 29 -4 27 -7 -6 -10 100 -28 228 -40 139 -13 278 -1 422 35 182
47 311 114 432 227 145 135 296 162 784 140 258 -12 588 -41 724 -65 l74 -13
155 171 c85 94 154 172 153 173 -5 6 -163 25 -316 39 -198 17 -844 26 -1083
14z m-1537 -665 c0 -8 -4 -15 -10 -15 -5 0 -7 7 -4 15 4 8 8 15 10 15 2 0 4
-7 4 -15z"/>
<path d="M14689 6553 c-13 -16 -12 -17 4 -4 9 7 17 15 17 17 0 8 -8 3 -21 -13z"/>
<path d="M18320 5950 c0 -5 5 -10 11 -10 5 0 7 5 4 10 -3 6 -8 10 -11 10 -2 0
-4 -4 -4 -10z"/>
<path d="M18356 5941 c-3 -5 1 -11 9 -14 9 -4 12 -1 8 9 -6 16 -10 17 -17 5z"/>
<path d="M18398 5943 c6 -2 18 -2 25 0 6 3 1 5 -13 5 -14 0 -19 -2 -12 -5z"/>
<path d="M18445 5920 c-3 -6 1 -7 9 -4 18 7 21 14 7 14 -6 0 -13 -4 -16 -10z"/>
<path d="M18500 5910 c0 -5 4 -10 9 -10 6 0 13 5 16 10 3 6 -1 10 -9 10 -9 0
-16 -4 -16 -10z"/>
<path d="M10645 5480 c9 -16 18 -30 21 -30 2 0 -2 14 -11 30 -9 17 -18 30 -21
30 -2 0 2 -13 11 -30z"/>
<path d="M11261 5454 c0 -11 3 -14 6 -6 3 7 2 16 -1 19 -3 4 -6 -2 -5 -13z"/>
<path d="M10678 5424 c6 -11 25 -35 42 -54 l32 -35 -34 48 c-33 49 -59 75 -40
41z"/>
<path d="M11215 5370 c-3 -6 1 -7 9 -4 18 7 21 14 7 14 -6 0 -13 -4 -16 -10z"/>
<path d="M11134 5338 c-4 -7 -4 -10 1 -6 4 4 14 3 22 -4 11 -8 12 -7 7 6 -7
19 -20 21 -30 4z"/>
<path d="M16923 5053 c-13 -2 -23 -8 -23 -13 0 -5 14 -4 30 1 27 10 42 21 23
18 -5 -1 -18 -4 -30 -6z"/>
<path d="M16868 5033 c7 -3 16 -2 19 1 4 3 -2 6 -13 5 -11 0 -14 -3 -6 -6z"/>
<path d="M18842 4280 c-34 -63 -125 -186 -191 -259 -24 -26 -37 -50 -34 -60 4
-13 3 -14 -5 -2 -9 12 -19 7 -59 -30 -107 -99 -253 -199 -428 -292 -60 -32
-99 -55 -85 -51 14 3 22 3 18 -1 -4 -5 0 -14 10 -21 16 -13 16 -13 0 -14 -10
0 -18 -4 -18 -9 0 -5 -10 -11 -22 -14 -12 -4 -19 -9 -16 -13 9 -9 282 125 369
181 176 113 354 278 437 405 44 68 95 167 108 210 6 22 5 23 -10 11 -9 -7 -16
-10 -16 -6 0 4 -6 2 -14 -4 -12 -10 -13 -8 -9 8 9 34 0 24 -35 -39z m-195
-305 c0 -8 -4 -12 -9 -9 -5 3 -6 10 -3 15 9 13 12 11 12 -6z m0 -57 c-3 -7 -5
-2 -5 12 0 14 2 19 5 13 2 -7 2 -19 0 -25z"/>
<path d="M15319 4128 c-5 -15 -9 -61 -5 -58 6 7 16 60 10 60 -2 0 -4 -1 -5 -2z"/>
<path d="M15291 4104 c0 -11 3 -14 6 -6 3 7 2 16 -1 19 -3 4 -6 -2 -5 -13z"/>
<path d="M15335 4091 c-3 -6 -2 -11 3 -11 6 0 8 -10 6 -22 -4 -20 -3 -21 4 -4
6 14 11 16 16 8 4 -7 5 -16 2 -20 -3 -5 1 -9 9 -9 19 0 19 -3 -9 36 -14 19
-27 28 -31 22z"/>
<path d="M18959 3953 c-13 -16 -12 -17 4 -4 16 13 21 21 13 21 -2 0 -10 -8
-17 -17z"/>
<path d="M19079 3933 c-13 -16 -12 -17 4 -4 16 13 21 21 13 21 -2 0 -10 -8
-17 -17z"/>
<path d="M18709 3713 c-13 -16 -12 -17 4 -4 16 13 21 21 13 21 -2 0 -10 -8
-17 -17z"/>
<path d="M18859 3713 c-13 -16 -12 -17 4 -4 16 13 21 21 13 21 -2 0 -10 -8
-17 -17z"/>
<path d="M18644 3668 c-82 -62 -203 -138 -304 -192 -60 -32 -92 -53 -75 -50
26 5 31 2 32 -15 1 -12 -3 -21 -10 -21 -8 0 -8 -3 0 -11 9 -9 47 5 150 55 172
84 408 238 334 219 -12 -3 -21 -1 -21 6 0 6 -7 8 -17 4 -9 -4 -14 -2 -10 3 3
5 -5 14 -18 20 -19 9 -28 6 -61 -18z"/>
<path d="M18809 3673 c-13 -16 -12 -17 4 -4 16 13 21 21 13 21 -2 0 -10 -8
-17 -17z"/>
<path d="M17970 3500 c-8 -5 -10 -10 -5 -10 6 0 17 5 25 10 8 5 11 10 5 10 -5
0 -17 -5 -25 -10z"/>
<path d="M17621 3439 c-18 -6 -31 -12 -29 -14 2 -3 24 1 49 9 49 16 33 20 -20
5z"/>
<path d="M17608 3403 c-7 -10 -19 -18 -25 -19 -7 -1 -22 -2 -34 -2 -11 -1 -17
-6 -14 -12 3 -5 1 -10 -6 -10 -7 0 -10 -2 -8 -5 3 -2 45 7 94 20 99 28 124 37
83 31 -16 -2 -28 2 -28 8 0 8 -2 8 -8 0 -4 -6 -18 -15 -32 -19 -22 -7 -23 -6
-11 9 7 9 11 16 8 16 -3 0 -12 -8 -19 -17z"/>
<path d="M18230 3350 c-8 -5 -10 -10 -5 -10 6 0 17 5 25 10 8 5 11 10 5 10 -5
0 -17 -5 -25 -10z"/>
<path d="M17468 3343 c7 -3 16 -2 19 1 4 3 -2 6 -13 5 -11 0 -14 -3 -6 -6z"/>
<path d="M17945 3300 c3 -5 8 -10 11 -10 2 0 4 5 4 10 0 6 -5 10 -11 10 -5 0
-7 -4 -4 -10z"/>
<path d="M17800 3260 c-117 -39 -128 -46 -52 -31 35 7 40 6 31 -5 -14 -17 3
-18 20 -1 10 10 11 9 6 -5 -4 -11 -30 -24 -66 -34 -33 -9 -58 -19 -55 -21 6
-6 184 43 267 74 73 27 87 42 23 24 -40 -11 -59 -1 -49 27 6 16 10 16 -125
-28z"/>
</g>
</svg>
